<svg width="128" height="35" viewBox="0 0 128 35" fill="none" xmlns="http://www.w3.org/2000/svg">
<path d="M7.64062 1.65753V34.0425" stroke="#03303D" stroke-miterlimit="10"/>
<path d="M1.28125 7.60753L7.59591 1.27502L13.9959 7.65002" stroke="#03303D" stroke-miterlimit="10"/>
<path d="M1.28125 11.9001L7.59591 5.56757L13.9959 11.9426" stroke="#03303D" stroke-miterlimit="10"/>
<path d="M1.28125 16.15L7.59591 9.86005L13.9959 16.235" stroke="#03303D" stroke-miterlimit="10"/>
<path d="M1.28125 20.4426L7.59591 14.11L13.9959 20.485" stroke="#03303D" stroke-miterlimit="10"/>
<path d="M1.28125 24.735L7.59591 18.4025L13.9959 24.7775" stroke="#03303D" stroke-miterlimit="10"/>
<path d="M1.28125 28.985L7.59591 22.695L13.9959 29.07" stroke="#03303D" stroke-miterlimit="10"/>
<path d="M31.1905 26.095L27.2652 19.3375H29.4412L26.2839 13.855H28.0332L23.9372 6.79999L19.8412 13.855H21.6332L18.4759 19.3375H20.6519L16.7266 26.095H31.1905Z" stroke="#03303D" stroke-miterlimit="10"/>
<path d="M23.9375 7.1825V34.0425" stroke="#03303D" stroke-miterlimit="10"/>
<path d="M54.7812 30.77L58.2373 34.17L61.8213 30.77" stroke="#03303D" stroke-miterlimit="10"/>
<path d="M58.2812 28.475V34.17" stroke="#03303D" stroke-miterlimit="10"/>
<path d="M64.6797 30.77L68.1357 34.17L71.7197 30.77" stroke="#03303D" stroke-miterlimit="10"/>
<path d="M68.1797 28.475V34.17" stroke="#03303D" stroke-miterlimit="10"/>
<path d="M44.8828 30.77L48.3388 34.17L51.8801 30.77" stroke="#03303D" stroke-miterlimit="10"/>
<path d="M48.3828 28.475V34.17" stroke="#03303D" stroke-miterlimit="10"/>
<path d="M34.9844 30.77L38.4404 34.17L41.9817 30.77" stroke="#03303D" stroke-miterlimit="10"/>
<path d="M38.4844 28.475V34.17" stroke="#03303D" stroke-miterlimit="10"/>
<path d="M67.8471 4.25V7.8625C67.8471 7.8625 67.6337 11.5175 70.6204 11.5175C73.6071 11.5175 76.0391 11.5175 76.0391 11.5175C76.0391 11.5175 77.9164 11.39 77.9164 14.3225" stroke="#03303D" stroke-miterlimit="10"/>
<path d="M71.6908 6.84253V7.86253C71.6908 7.86253 71.4775 11.5175 74.4642 11.5175" stroke="#03303D" stroke-miterlimit="10"/>
<path d="M90.8897 4.25V7.8625C90.8897 7.8625 91.103 11.5175 88.1163 11.5175C85.1297 11.5175 82.6977 11.5175 82.6977 11.5175C82.6977 11.5175 80.8203 11.39 80.8203 14.3225" stroke="#03303D" stroke-miterlimit="10"/>
<path d="M87.0936 6.84253V7.86253C87.0936 7.86253 87.307 11.5175 84.3203 11.5175" stroke="#03303D" stroke-miterlimit="10"/>
<path d="M85.9797 13.855L82.225 16.915L80.6037 23.6725H78.5557L76.9343 16.915L73.1797 13.855" stroke="#03303D" stroke-miterlimit="10"/>
<path d="M85.8516 16.4475H101.596C102.577 16.4475 103.644 16.405 104.54 16.8725C105.478 17.3825 106.246 18.4875 106.246 19.5925C106.246 21.76 106.246 33.7875 106.246 33.7875" stroke="#03303D" stroke-miterlimit="10"/>
<path d="M93.829 24.8625C93.4877 24.8625 88.453 24.8625 88.453 24.8625C86.9597 24.8625 85.765 23.715 85.6797 22.2275" stroke="#03303D" stroke-miterlimit="10"/>
<path d="M87.8125 24.8625V33.745" stroke="#03303D" stroke-miterlimit="10"/>
<path d="M89.8594 24.8625V33.745" stroke="#03303D" stroke-miterlimit="10"/>
<path d="M104.117 26.69V33.745" stroke="#03303D" stroke-miterlimit="10"/>
<path d="M96.2194 19.38C96.2194 19.38 94.8114 27.2425 106.203 27.2425" stroke="#03303D" stroke-miterlimit="10"/>
<path d="M112.339 23.63C113.588 23.63 114.601 22.6215 114.601 21.3775C114.601 20.1335 113.588 19.125 112.339 19.125C111.091 19.125 110.078 20.1335 110.078 21.3775C110.078 22.6215 111.091 23.63 112.339 23.63Z" stroke="#03303D" stroke-miterlimit="10"/>
<path d="M114.945 31.1526H125.612V20.5701L114.945 31.1526Z" stroke="#03303D" stroke-miterlimit="10"/>
</svg>
