<svg width="145" height="39" viewBox="0 0 145 39" fill="none" xmlns="http://www.w3.org/2000/svg">
<path d="M18.2397 29.0996V37.6172H7.67188V29.0996" stroke="#03303D" stroke-miterlimit="10"/>
<path d="M5 31.8443L12.9895 23.8945L20.9154 31.7496" stroke="#03303D" stroke-miterlimit="10"/>
<path d="M14.1691 30.3301H11.75" stroke="#03303D" stroke-miterlimit="10"/>
<path d="M14.1691 33.6108H11.75" stroke="#03303D" stroke-miterlimit="10"/>
<path d="M36.8569 29.0996V37.6172H26.2891V29.0996" stroke="#03303D" stroke-miterlimit="10"/>
<path d="M23.6172 31.8443L31.6067 23.8945L39.5326 31.7496" stroke="#03303D" stroke-miterlimit="10"/>
<path d="M32.7863 30.3301H30.3672" stroke="#03303D" stroke-miterlimit="10"/>
<path d="M32.7863 33.6108H30.3672" stroke="#03303D" stroke-miterlimit="10"/>
<path d="M112.169 29.3301V37.8476H101.602V29.3301" stroke="#03303D" stroke-miterlimit="10"/>
<path d="M98.9297 32.0747L106.919 24.125L114.845 31.9801" stroke="#03303D" stroke-miterlimit="10"/>
<path d="M108.099 30.5605H105.68" stroke="#03303D" stroke-miterlimit="10"/>
<path d="M108.099 33.8413H105.68" stroke="#03303D" stroke-miterlimit="10"/>
<path d="M51.4375 13.7195V38.1395" stroke="#03303D" stroke-miterlimit="10"/>
<path d="M51.4339 23.2008C56.7174 23.2008 61.0005 18.9559 61.0005 13.7195C61.0005 8.48318 56.7174 4.23828 51.4339 4.23828C46.1503 4.23828 41.8672 8.48318 41.8672 13.7195C41.8672 18.9559 46.1503 23.2008 51.4339 23.2008Z" stroke="#03303D" stroke-miterlimit="10"/>
<path d="M58.3438 20.5645V38.1395" stroke="#03303D" stroke-miterlimit="10"/>
<path d="M58.3442 27.4095C62.1586 27.4095 65.2508 24.3449 65.2508 20.5645C65.2508 16.7841 62.1586 13.7195 58.3442 13.7195C54.5297 13.7195 51.4375 16.7841 51.4375 20.5645C51.4375 24.3449 54.5297 27.4095 58.3442 27.4095Z" stroke="#03303D" stroke-miterlimit="10"/>
<path d="M125.211 1C125.211 1 127.544 1.32374 128.384 3.12749" stroke="#03303D" stroke-miterlimit="10"/>
<path d="M133.47 1C133.47 1 131.137 1.32374 130.297 3.12749" stroke="#03303D" stroke-miterlimit="10"/>
<path d="M129.411 4.51506C130.344 4.51506 131.184 4.83882 131.837 5.39382C131.837 5.34757 131.837 5.30131 131.837 5.20881C131.837 3.86756 130.717 2.75757 129.364 2.75757C128.011 2.75757 126.891 3.86756 126.891 5.20881C126.891 5.30131 126.891 5.39383 126.891 5.48633C127.591 4.88508 128.477 4.51506 129.411 4.51506Z" stroke="#03303D" stroke-miterlimit="10"/>
<path d="M132.491 10.5274C132.957 9.87989 133.191 9.04741 133.191 8.26116C133.191 6.17991 131.511 4.51489 129.411 4.51489C127.311 4.51489 125.631 6.17991 125.631 8.26116C125.631 9.09366 125.911 9.87989 126.331 10.5274C125.631 11.4986 125.164 12.7474 125.164 14.1812C125.164 17.0949 127.077 18.9449 129.411 18.9449C131.744 18.9449 133.657 17.0949 133.657 14.1812C133.657 12.7937 133.237 11.4986 132.491 10.5274Z" stroke="#03303D" stroke-miterlimit="10"/>
<path d="M125.631 8.26135C125.631 7.70635 125.771 7.19761 125.958 6.73511L117.418 4.09885C117.231 4.0526 116.998 4.00635 116.764 4.00635H116.718C115.644 4.00635 114.758 4.8851 114.758 5.94885C114.758 6.7351 115.224 7.3826 115.878 7.70635C116.251 7.89135 116.484 8.2151 116.484 8.63135C116.484 9.9726 117.511 11.0826 118.818 11.2676C119.471 11.3601 120.218 11.3139 120.871 11.1289C121.571 10.9439 122.271 10.6663 122.971 10.4813C123.718 10.2501 124.464 10.0188 125.258 9.7876C125.304 9.7876 125.631 9.69509 125.911 9.60259C125.724 9.23259 125.631 8.7701 125.631 8.26135Z" stroke="#03303D" stroke-miterlimit="10"/>
<path d="M142.014 4.05249H141.967C141.734 4.05249 141.547 4.0525 141.314 4.145L132.867 6.73501C133.101 7.19751 133.194 7.70626 133.194 8.26126C133.194 8.77001 133.101 9.23251 132.914 9.64876C133.194 9.74126 133.427 9.7875 133.474 9.7875C134.221 10.0188 134.967 10.25 135.76 10.4813C136.46 10.7125 137.16 10.9438 137.86 11.1288C138.514 11.3138 139.214 11.36 139.914 11.2675C141.221 11.0825 142.247 9.92625 142.247 8.63125C142.247 8.215 142.481 7.89125 142.854 7.70625C143.507 7.3825 143.974 6.73501 143.974 5.94876C143.974 4.93126 143.087 4.05249 142.014 4.05249Z" stroke="#03303D" stroke-miterlimit="10"/>
<path d="M125.633 7.10498H133.24" stroke="#03303D" stroke-miterlimit="10"/>
<path d="M125.633 10.25H133.24" stroke="#03303D" stroke-miterlimit="10"/>
<path d="M125.633 13.3489H133.24" stroke="#03303D" stroke-miterlimit="10"/>
<path d="M77.8906 34.1157L81.064 37.307L84.3773 34.1157" stroke="#03303D" stroke-miterlimit="10"/>
<path d="M81.1094 31.9883V37.307" stroke="#03303D" stroke-miterlimit="10"/>
<path d="M131.094 34.1157L134.267 37.307L137.58 34.1157" stroke="#03303D" stroke-miterlimit="10"/>
<path d="M134.312 31.9883V37.307" stroke="#03303D" stroke-miterlimit="10"/>
<path d="M67.5312 34.1157L70.7512 37.307L74.0646 34.1157" stroke="#03303D" stroke-miterlimit="10"/>
<path d="M70.7969 31.9883V37.307" stroke="#03303D" stroke-miterlimit="10"/>
<path d="M120.734 34.1157L123.954 37.307L127.268 34.1157" stroke="#03303D" stroke-miterlimit="10"/>
<path d="M124 31.9883V37.307" stroke="#03303D" stroke-miterlimit="10"/>
<path d="M87.9297 34.1157L91.103 37.307L94.4163 34.1157" stroke="#03303D" stroke-miterlimit="10"/>
<path d="M91.1953 31.9883V37.307" stroke="#03303D" stroke-miterlimit="10"/>
<path d="M92.9186 18.7599C94.2846 18.7599 95.392 17.6625 95.392 16.3087C95.392 14.9549 94.2846 13.8574 92.9186 13.8574C91.5526 13.8574 90.4453 14.9549 90.4453 16.3087C90.4453 17.6625 91.5526 18.7599 92.9186 18.7599Z" stroke="#03303D" stroke-miterlimit="10"/>
<path d="M81.0168 16.4941C79.2435 16.4941 77.7969 15.0604 77.7969 13.3029V6.96665C77.7969 5.20915 79.2435 3.77539 81.0168 3.77539C82.7902 3.77539 84.2368 5.20915 84.2368 6.96665V13.3491C84.1902 15.0604 82.7435 16.4941 81.0168 16.4941Z" stroke="#03303D" stroke-miterlimit="10"/>
</svg>
