<svg width="114" height="32" viewBox="0 0 114 32" fill="none" xmlns="http://www.w3.org/2000/svg">
<path d="M92.768 6.25H109.195C111.211 6.25 112.853 7.9 112.853 9.925V13V15.4V25.15C112.853 25.5625 112.331 25.75 112.069 25.4125L107.216 19.075H92.768C90.752 19.075 89.1094 17.425 89.1094 15.4V9.925C89.1094 7.9 90.752 6.25 92.768 6.25Z" stroke="#03303D" stroke-miterlimit="10"/>
<path d="M106.248 12.7002H104.68" stroke="#03303D" stroke-width="2.7708" stroke-miterlimit="10"/>
<path d="M101.763 12.7002H100.195" stroke="#03303D" stroke-width="2.7708" stroke-miterlimit="10"/>
<path d="M97.2477 12.7002H95.6797" stroke="#03303D" stroke-width="2.7708" stroke-miterlimit="10"/>
<path d="M3.20268 14.2375C4.41917 14.2375 5.40533 13.2469 5.40533 12.025C5.40533 10.8031 4.41917 9.8125 3.20268 9.8125C1.98618 9.8125 1 10.8031 1 12.025C1 13.2469 1.98618 14.2375 3.20268 14.2375Z" stroke="#03303D" stroke-miterlimit="10"/>
<path d="M11.2652 22.1501C12.4817 22.1501 13.4678 21.1595 13.4678 19.9376C13.4678 18.7157 12.4817 17.7251 11.2652 17.7251C10.0487 17.7251 9.0625 18.7157 9.0625 19.9376C9.0625 21.1595 10.0487 22.1501 11.2652 22.1501Z" stroke="#03303D" stroke-miterlimit="10"/>
<path d="M19.4449 14.2375C20.6614 14.2375 21.6475 13.2469 21.6475 12.025C21.6475 10.8031 20.6614 9.8125 19.4449 9.8125C18.2284 9.8125 17.2422 10.8031 17.2422 12.025C17.2422 13.2469 18.2284 14.2375 19.4449 14.2375Z" stroke="#03303D" stroke-miterlimit="10"/>
<path d="M27.5464 22.1501C28.7629 22.1501 29.7491 21.1595 29.7491 19.9376C29.7491 18.7157 28.7629 17.7251 27.5464 17.7251C26.3299 17.7251 25.3438 18.7157 25.3438 19.9376C25.3438 21.1595 26.3299 22.1501 27.5464 22.1501Z" stroke="#03303D" stroke-miterlimit="10"/>
<path d="M4.69531 13.6377L9.73531 18.3627" stroke="#03303D" stroke-miterlimit="10"/>
<path d="M20.9766 13.6377L26.0166 18.3627" stroke="#03303D" stroke-miterlimit="10"/>
<path d="M17.8759 13.4502L13.1719 18.5127" stroke="#03303D" stroke-miterlimit="10"/>
<path d="M55.4674 30.8877C56.6014 30.8877 57.5207 29.9643 57.5207 28.8252C57.5207 27.6861 56.6014 26.7627 55.4674 26.7627C54.3334 26.7627 53.4141 27.6861 53.4141 28.8252C53.4141 29.9643 54.3334 30.8877 55.4674 30.8877Z" stroke="#03303D" stroke-miterlimit="10"/>
<path d="M41.6983 19.9377C40.5036 21.1377 39.9062 22.7127 39.9062 24.2877C41.4742 24.2877 43.0423 23.6877 44.2369 22.4877C45.4316 21.2877 46.0289 19.7127 46.0289 18.1377C44.4609 18.1752 42.8929 18.7377 41.6983 19.9377Z" stroke="#03303D" stroke-miterlimit="10"/>
<path d="M44.2682 26.0876C43.0735 24.8876 41.5055 24.2876 39.9375 24.2876C39.9375 25.8626 40.5348 27.4376 41.7295 28.6376C42.9242 29.8376 44.4922 30.4376 46.0602 30.4376C46.0602 28.9001 45.4628 27.3251 44.2682 26.0876Z" stroke="#03303D" stroke-miterlimit="10"/>
<path d="M38.151 28.6752C39.3456 27.4752 39.943 25.9002 39.943 24.3252C38.375 24.3252 36.807 24.9252 35.6123 26.1252C34.4176 27.3252 33.8203 28.9002 33.8203 30.4752C35.351 30.4752 36.9563 29.8752 38.151 28.6752Z" stroke="#03303D" stroke-miterlimit="10"/>
<path d="M35.5732 22.5253C36.7679 23.7253 38.3359 24.3253 39.9039 24.3253C39.9039 22.7503 39.3066 21.1753 38.1119 19.9753C36.9172 18.7753 35.3492 18.1753 33.7812 18.1753C33.7812 19.7503 34.3786 21.3253 35.5732 22.5253Z" stroke="#03303D" stroke-miterlimit="10"/>
<path d="M72.7608 19.9377C71.5661 21.1377 70.9688 22.7127 70.9688 24.2877C72.5367 24.2877 74.1048 23.6877 75.2994 22.4877C76.4941 21.2877 77.0914 19.7127 77.0914 18.1377C75.5234 18.1752 73.9554 18.7377 72.7608 19.9377Z" stroke="#03303D" stroke-miterlimit="10"/>
<path d="M75.2994 26.0876C74.1048 24.8876 72.5367 24.2876 70.9688 24.2876C70.9688 25.8626 71.5661 27.4376 72.7608 28.6376C73.9554 29.8376 75.5234 30.4376 77.0914 30.4376C77.0914 28.9001 76.4941 27.3251 75.2994 26.0876Z" stroke="#03303D" stroke-miterlimit="10"/>
<path d="M69.1744 28.6752C70.3691 27.4752 70.9664 25.9002 70.9664 24.3252C69.3984 24.3252 67.8304 24.9252 66.6358 26.1252C65.4411 27.3252 64.8438 28.9002 64.8438 30.4752C66.4117 30.4752 67.9798 29.8752 69.1744 28.6752Z" stroke="#03303D" stroke-miterlimit="10"/>
<path d="M66.6358 22.5253C67.8304 23.7253 69.3984 24.3253 70.9664 24.3253C70.9664 22.7503 70.3691 21.1753 69.1744 19.9753C67.9798 18.7753 66.4117 18.1753 64.8438 18.1753C64.8438 19.7503 65.4411 21.3253 66.6358 22.5253Z" stroke="#03303D" stroke-miterlimit="10"/>
<path d="M59.7994 8.3125C58.1194 8.3125 56.5888 9.025 55.4688 10.1125C56.5888 11.2375 58.1194 11.9125 59.7994 11.9125C61.4794 11.9125 63.0101 11.2 64.1301 10.1125C63.0101 9.025 61.4794 8.3125 59.7994 8.3125Z" stroke="#03303D" stroke-miterlimit="10"/>
<path d="M57.2559 14.5004C57.2559 12.8129 56.5465 11.2754 55.4639 10.1504C54.3439 11.2754 53.6719 12.8129 53.6719 14.5004C53.6719 16.1879 54.3812 17.7254 55.4639 18.8504C56.5465 17.7254 57.2559 16.1879 57.2559 14.5004Z" stroke="#03303D" stroke-miterlimit="10"/>
<path d="M51.1354 11.9501C52.8154 11.9501 54.346 11.2376 55.466 10.1501C54.346 9.02512 52.8154 8.3501 51.1354 8.3501C49.4554 8.3501 47.9247 9.06262 46.8047 10.1501C47.8874 11.2751 49.418 11.9501 51.1354 11.9501Z" stroke="#03303D" stroke-miterlimit="10"/>
<path d="M53.6328 5.80019C53.6328 7.48769 54.3421 9.0252 55.4248 10.1502C56.5448 9.0252 57.2168 7.48769 57.2168 5.80019C57.2168 4.11269 56.5075 2.5752 55.4248 1.4502C54.3421 2.5377 53.6328 4.07519 53.6328 5.80019Z" stroke="#03303D" stroke-miterlimit="10"/>
<path d="M93.5469 28.2251L96.0855 30.8126L98.7362 28.2251" stroke="#03303D" stroke-miterlimit="10"/>
<path d="M96.125 26.5V30.8125" stroke="#03303D" stroke-miterlimit="10"/>
<path d="M85.2578 28.2251L87.8338 30.8126L90.4845 28.2251" stroke="#03303D" stroke-miterlimit="10"/>
<path d="M87.875 26.5V30.8125" stroke="#03303D" stroke-miterlimit="10"/>
<path d="M101.578 28.2251L104.117 30.8126L106.767 28.2251" stroke="#03303D" stroke-miterlimit="10"/>
<path d="M104.195 26.5V30.8125" stroke="#03303D" stroke-miterlimit="10"/>
</svg>
