<svg width="142" height="26" viewBox="0 0 142 26" fill="none" xmlns="http://www.w3.org/2000/svg">
<g clip-path="url(#clip0_1275_12390)">
<path d="M108.07 10.0122L110.568 12.2317L112.999 10.0706" stroke="#03303D" stroke-miterlimit="10"/>
<path d="M108.07 17.1091L110.568 19.3286L112.999 17.1675" stroke="#03303D" stroke-miterlimit="10"/>
<path d="M106.523 12.232L110.565 15.8532L114.541 12.3488" stroke="#03303D" stroke-miterlimit="10"/>
<path d="M110.539 8.31891V23.7383" stroke="#03303D" stroke-miterlimit="10"/>
<path d="M119.078 10.0122L121.575 12.2317L124.04 10.0706" stroke="#03303D" stroke-miterlimit="10"/>
<path d="M119.078 17.1091L121.575 19.3286L124.04 17.1675" stroke="#03303D" stroke-miterlimit="10"/>
<path d="M117.531 12.232L121.606 15.8532L125.582 12.3488" stroke="#03303D" stroke-miterlimit="10"/>
<path d="M121.57 8.31891V23.7383" stroke="#03303D" stroke-miterlimit="10"/>
<path d="M58.9062 21.7219L61.1407 23.7369L63.4738 21.7219" stroke="#03303D" stroke-miterlimit="10"/>
<path d="M61.1719 20.3792V23.7376" stroke="#03303D" stroke-miterlimit="10"/>
<path d="M51.6094 21.7219L53.8438 23.7369L56.1769 21.7219" stroke="#03303D" stroke-miterlimit="10"/>
<path d="M53.9062 20.3792V23.7376" stroke="#03303D" stroke-miterlimit="10"/>
<path d="M65.9766 21.7219L68.211 23.7369L70.5441 21.7219" stroke="#03303D" stroke-miterlimit="10"/>
<path d="M68.2422 20.3792V23.7376" stroke="#03303D" stroke-miterlimit="10"/>
<path d="M93.1875 21.7219L95.422 23.7369L97.755 21.7219" stroke="#03303D" stroke-miterlimit="10"/>
<path d="M95.4844 20.3792V23.7376" stroke="#03303D" stroke-miterlimit="10"/>
<path d="M100.211 21.7219L102.478 23.7369L104.811 21.7219" stroke="#03303D" stroke-miterlimit="10"/>
<path d="M102.508 20.3792V23.7376" stroke="#03303D" stroke-miterlimit="10"/>
<path d="M126.141 21.7219L128.408 23.7369L130.741 21.7219" stroke="#03303D" stroke-miterlimit="10"/>
<path d="M128.438 20.3792V23.7376" stroke="#03303D" stroke-miterlimit="10"/>
<path d="M133.203 21.7219L135.438 23.7369L137.771 21.7219" stroke="#03303D" stroke-miterlimit="10"/>
<path d="M135.5 20.3792V23.7376" stroke="#03303D" stroke-miterlimit="10"/>
<path d="M11.0625 8.3194V23.7388" stroke="#03303D" stroke-miterlimit="10"/>
<path d="M11.0644 14.3059C14.7847 14.3059 17.8007 11.6256 17.8007 8.3192C17.8007 5.01285 14.7847 2.33252 11.0644 2.33252C7.34406 2.33252 4.32812 5.01285 4.32812 8.3192C4.32812 11.6256 7.34406 14.3059 11.0644 14.3059Z" stroke="#03303D" stroke-miterlimit="10"/>
<path d="M15.9219 12.6411V23.7384" stroke="#03303D" stroke-miterlimit="10"/>
<path d="M15.9258 16.9636C18.6117 16.9636 20.789 15.0285 20.789 12.6415C20.789 10.2545 18.6117 8.3194 15.9258 8.3194C13.2399 8.3194 11.0625 10.2545 11.0625 12.6415C11.0625 15.0285 13.2399 16.9636 15.9258 16.9636Z" stroke="#03303D" stroke-miterlimit="10"/>
<path d="M41.2967 20.3801C41.2967 21.519 41.2967 23.7385 41.2967 23.7385H37.2877C37.222 21.7527 35.3819 20.1465 33.1145 20.1465C30.8472 20.1465 29.0399 21.7527 28.9413 23.7385H25.1953V10.889C25.1953 6.09968 29.5657 2.21564 34.9547 2.21564H36.9591C36.9591 2.21564 47.8029 2.21564 47.8029 11.0058V20.8474C47.8029 22.4536 46.3571 23.7385 44.5498 23.7385L41.3952 15.3279C35.3819 15.3279 35.3162 9.7209 35.3162 9.7209V8.11471C35.3162 6.97578 36.3677 6.07048 37.6163 6.07048H41.3624" stroke="#03303D" stroke-miterlimit="10"/>
<path d="M25.1968 10.86C25.1968 10.86 25.0982 13.868 23.0938 13.868" stroke="#03303D" stroke-miterlimit="10"/>
<path d="M86.3188 21.2268C86.3188 22.0737 86.3188 23.7091 86.3188 23.7091H83.3614C83.2956 22.249 81.9484 21.0516 80.2725 21.0516C78.5967 21.0516 77.2494 22.2198 77.1837 23.7091H74.3906V14.1888C74.3906 10.626 77.6438 7.7641 81.6198 7.7641H83.0985C83.0985 7.7641 91.1163 7.7641 91.1163 14.2764V21.5773C91.1163 22.7746 90.0319 23.7091 88.7175 23.7091L86.3845 17.4596C81.9155 17.4596 81.8827 13.3127 81.8827 13.3127V12.1446C81.8827 11.2977 82.6385 10.626 83.5914 10.626H86.3845" stroke="#03303D" stroke-miterlimit="10"/>
<path d="M74.3882 14.1888C74.3882 14.1888 74.3224 16.4082 72.8438 16.4082" stroke="#03303D" stroke-miterlimit="10"/>
</g>
<defs>
<clipPath id="clip0_1275_12390">
<rect width="142" height="26" fill="white"/>
</clipPath>
</defs>
</svg>
