<svg width="208" height="38" viewBox="0 0 208 38" fill="none" xmlns="http://www.w3.org/2000/svg">
<path d="M142.023 21.3158C143.313 21.3158 144.359 20.2911 144.359 19.0272C144.359 17.7632 143.313 16.7385 142.023 16.7385C140.733 16.7385 139.688 17.7632 139.688 19.0272C139.688 20.2911 140.733 21.3158 142.023 21.3158Z" stroke="#03303D" stroke-miterlimit="10"/>
<path d="M130.658 28.9158C128.983 28.9158 127.617 27.5772 127.617 25.9363V20.0635C127.617 18.4226 128.983 17.084 130.658 17.084C132.332 17.084 133.699 18.4226 133.699 20.0635V25.9794C133.699 27.5772 132.332 28.9158 130.658 28.9158Z" stroke="#03303D" stroke-miterlimit="10"/>
<path d="M188.781 10.7363H195.744L193.497 12.9386L192.263 15.9613L190.852 12.9386L188.781 10.7363Z" stroke="#03303D" stroke-miterlimit="10" stroke-linejoin="round"/>
<path d="M195.704 10.6499L198.833 15.7022C197.951 16.7385 196.409 16.9113 195.307 16.0908L193.016 14.4499" stroke="#03303D" stroke-miterlimit="10"/>
<path d="M188.824 10.6499L185.695 15.7022C186.577 16.7385 188.075 16.8681 189.221 16.0908L191.512 14.4499" stroke="#03303D" stroke-miterlimit="10"/>
<path d="M197.155 16.8681V16.9544C197.287 17.6022 197.331 18.2931 197.331 18.984C197.331 22.0931 196.758 25.0294 195.657 28.009L195.084 29.5635L192.219 27.5772L189.663 29.5635L189.091 28.4408C187.372 25.0726 186.667 21.7908 187.196 18.034L187.46 16.7385" stroke="#03303D" stroke-miterlimit="10"/>
<path d="M198.789 15.6589L200.199 18.8112C201.565 21.7908 200.992 25.2885 198.789 27.7498" stroke="#03303D" stroke-miterlimit="10"/>
<path d="M185.787 15.6589L184.377 18.8112C183.01 21.7908 183.583 25.2885 185.787 27.7498" stroke="#03303D" stroke-miterlimit="10"/>
<path d="M190.633 28.5703L192.263 30.9021L193.718 28.5703" stroke="#03303D" stroke-miterlimit="10"/>
<path d="M32.0298 15.2272C31.1044 11.7295 27.5349 9.69997 24.0095 10.5636C20.8366 11.3409 18.6773 14.7091 19.0298 17.9045C19.162 18.9409 19.4264 19.9341 19.8671 20.9272C21.057 23.8204 22.8637 26.3682 25.0671 28.6136C25.1553 28.7432 25.2875 28.8295 25.4197 28.9159C25.5519 29.0022 25.7281 29.0022 25.8163 28.9159C25.9925 28.7863 26.1247 28.6136 26.301 28.4841C27.7553 27.0159 29.0332 25.375 30.0908 23.5613C31.0163 22.0068 31.7654 20.3659 32.0739 18.5954C32.2502 17.4727 32.2942 16.35 32.0298 15.2272Z" stroke="#03303D" stroke-miterlimit="10"/>
<path d="M23.3047 16.6954C23.3488 15.4863 24.3623 14.4932 25.5962 14.4932C26.8742 14.4932 27.8877 15.4863 27.8877 16.7386C27.8877 17.9909 26.8742 18.9841 25.5962 18.9841C25.5521 18.9841 25.5521 18.9841 25.5081 18.9841" stroke="#03303D" stroke-miterlimit="10"/>
<path d="M47.6797 19.675V27.7932" stroke="#03303D" stroke-miterlimit="10"/>
<path d="M46.3594 15.5728L47.8136 22.0932L49.0475 15.5728" stroke="#03303D" stroke-miterlimit="10"/>
<path d="M46 11.6432V15.1409C46 15.4 46.2203 15.6159 46.4847 15.6159H49.1288C49.3932 15.6159 49.6136 15.4 49.6136 15.1409V11.6432C49.6136 11.3841 49.3932 11.1682 49.1288 11.1682H46.4847C46.2203 11.1682 46 11.3841 46 11.6432Z" stroke="#03303D" stroke-miterlimit="10"/>
<path d="M46.0036 11.5569L36.6172 8.14551V9.13869L40.7155 14.7091" stroke="#03303D" stroke-miterlimit="10"/>
<path d="M39.0859 18.941L45.9605 14.7092" stroke="#03303D" stroke-miterlimit="10"/>
<path d="M49.7969 11.5569L59.1833 8.14551V9.13869L55.1291 14.7091" stroke="#03303D" stroke-miterlimit="10"/>
<path d="M56.7105 18.941L49.8359 14.7092" stroke="#03303D" stroke-miterlimit="10"/>
<path d="M48.5139 11.0386V9.74316H47.0156V11.0386" stroke="#03303D" stroke-miterlimit="10"/>
<path d="M7 24.3818L9.99661 27.3614L13.1254 24.3818" stroke="#03303D" stroke-miterlimit="10"/>
<path d="M10.0859 22.3955V27.3614" stroke="#03303D" stroke-miterlimit="10"/>
<path d="M7 16.1772L9.99661 19.1568L13.1254 16.1772" stroke="#03303D" stroke-miterlimit="10"/>
<path d="M10.0859 14.2341V19.1569" stroke="#03303D" stroke-miterlimit="10"/>
<path d="M167.67 21.2727C167.626 21.2727 167.626 21.2727 167.581 21.2727C162.822 21.2727 158.944 25.0727 158.944 29.7363C158.944 25.0727 155.066 21.2727 150.307 21.2727C150.263 21.2727 150.263 21.2727 150.219 21.2727" stroke="#03303D" stroke-miterlimit="10"/>
<path d="M181.332 12.1614H181.288C178.423 12.1614 176.088 14.45 176.088 17.2568C176.088 14.45 173.752 12.1614 170.888 12.1614H170.844" stroke="#03303D" stroke-miterlimit="10"/>
<path d="M68.25 19.7615C68.25 19.7615 70.1449 20.0206 70.85 21.4887" stroke="#03303D" stroke-miterlimit="10"/>
<path d="M75.0375 19.7615C75.0375 19.7615 73.1426 20.0206 72.4375 21.4887" stroke="#03303D" stroke-miterlimit="10"/>
<path d="M71.7352 22.6115C72.4844 22.6115 73.1895 22.8706 73.7183 23.3024C73.7183 23.2593 73.7183 23.2161 73.7183 23.1729C73.7183 22.0502 72.7929 21.1865 71.6912 21.1865C70.5895 21.1865 69.6641 22.0933 69.6641 23.1729C69.6641 23.2593 69.6641 23.3024 69.6641 23.3888C70.1929 22.9138 70.942 22.6115 71.7352 22.6115Z" stroke="#03303D" stroke-miterlimit="10"/>
<path d="M74.2454 27.5343C74.598 26.9729 74.8183 26.3684 74.8183 25.6775C74.8183 23.9934 73.4081 22.6116 71.6895 22.6116C69.9708 22.6116 68.5607 23.9934 68.5607 25.6775C68.5607 26.3252 68.781 26.9729 69.1336 27.5343C68.5607 28.3116 68.1641 29.3479 68.1641 30.5138C68.1641 32.8888 69.7064 34.4002 71.6454 34.4002C73.5844 34.4002 75.1268 32.8888 75.1268 30.5138C75.2149 29.3479 74.8624 28.3116 74.2454 27.5343Z" stroke="#03303D" stroke-miterlimit="10"/>
<path d="M68.6489 25.6774C68.6489 25.2456 68.737 24.8138 68.9133 24.4252L61.8624 22.3093C61.6862 22.2661 61.5099 22.2229 61.3336 22.2229H61.2896C60.4082 22.2229 59.7031 22.9138 59.7031 23.7774C59.7031 24.4252 60.0997 24.9434 60.6285 25.2024C60.937 25.332 61.1133 25.6343 61.1133 25.9797C61.1133 27.0593 61.9506 27.9661 63.0082 28.1388C63.5811 28.2252 64.154 28.182 64.6828 28.0093C65.2557 27.8365 65.8285 27.6638 66.4014 27.4911C67.0184 27.3184 67.6353 27.1024 68.2523 26.9297C68.2963 26.9297 68.5608 26.8434 68.7811 26.8002C68.693 26.4547 68.6489 26.0661 68.6489 25.6774Z" stroke="#03303D" stroke-miterlimit="10"/>
<path d="M82.0903 22.2661C81.8699 22.2661 81.6937 22.2661 81.5174 22.3525L74.5547 24.4684C74.731 24.857 74.8191 25.2888 74.8191 25.7207C74.8191 26.1093 74.731 26.4979 74.5988 26.8434C74.8191 26.8866 75.0394 26.9729 75.0394 26.9729C75.6564 27.1457 76.2733 27.3616 76.8903 27.5343C77.4632 27.707 78.036 27.8797 78.6089 28.0525C79.1377 28.2252 79.7106 28.2684 80.2835 28.182C81.3852 28.0093 82.1784 27.1025 82.1784 26.0229C82.1784 25.6775 82.3547 25.4184 82.6632 25.2457C83.192 24.9866 83.5886 24.4684 83.5886 23.8207C83.7208 22.957 82.9716 22.2661 82.0903 22.2661Z" stroke="#03303D" stroke-miterlimit="10"/>
<path d="M68.6484 24.7273H74.862" stroke="#03303D" stroke-miterlimit="10"/>
<path d="M68.6484 27.2751H74.862" stroke="#03303D" stroke-miterlimit="10"/>
<path d="M68.6484 29.8228H74.862" stroke="#03303D" stroke-miterlimit="10"/>
<path d="M105.531 4C105.531 4 105.531 9.13864 105.531 15.3568" stroke="#03303D" stroke-miterlimit="10"/>
<path d="M105.531 26.584C105.531 32.6294 105.531 37.5522 105.531 37.5522" stroke="#03303D" stroke-miterlimit="10"/>
<path d="M96.9844 6.24536C96.9844 6.24536 99.5844 10.6931 102.801 16.0908" stroke="#03303D" stroke-miterlimit="10"/>
<path d="M108.57 25.9363C111.611 31.1181 114.079 35.3067 114.079 35.3067" stroke="#03303D" stroke-miterlimit="10"/>
<path d="M90.6797 12.3772C90.6797 12.3772 95.0424 14.8386 100.419 17.8613" stroke="#03303D" stroke-miterlimit="10"/>
<path d="M110.203 23.4319C115.756 26.5842 120.383 29.1751 120.383 29.1751" stroke="#03303D" stroke-miterlimit="10"/>
<path d="M88.3906 20.7976C88.3906 20.7976 93.5025 20.7976 99.8042 20.7976" stroke="#03303D" stroke-miterlimit="10"/>
<path d="M111.438 20.7976C117.607 20.7976 122.631 20.7976 122.631 20.7976" stroke="#03303D" stroke-miterlimit="10"/>
<path d="M90.6797 29.175C90.6797 29.175 95.0424 26.7136 100.463 23.6477" stroke="#03303D" stroke-miterlimit="10"/>
<path d="M110.555 17.9477C115.975 14.8817 120.382 12.3772 120.382 12.3772" stroke="#03303D" stroke-miterlimit="10"/>
<path d="M97.0703 35.4363C97.0703 35.4363 99.6703 31.0318 102.843 25.634" stroke="#03303D" stroke-miterlimit="10"/>
<path d="M108.664 15.7887C111.749 10.6068 114.217 6.41821 114.217 6.41821" stroke="#03303D" stroke-miterlimit="10"/>
<path d="M105.533 26.5408C108.77 26.5408 111.394 23.9695 111.394 20.7976C111.394 17.6258 108.77 15.0544 105.533 15.0544C102.296 15.0544 99.6719 17.6258 99.6719 20.7976C99.6719 23.9695 102.296 26.5408 105.533 26.5408Z" stroke="#03303D" stroke-miterlimit="10"/>
</svg>
