<svg width="128" height="37" viewBox="0 0 128 37" fill="none" xmlns="http://www.w3.org/2000/svg">
<path d="M37.7344 4.8042V36.9435" stroke="#03303D" stroke-miterlimit="10"/>
<path d="M31.3984 10.6738L37.6912 4.42334L44.0261 10.7161" stroke="#03303D" stroke-miterlimit="10"/>
<path d="M31.3984 14.9387L37.6912 8.646L44.0261 14.9809" stroke="#03303D" stroke-miterlimit="10"/>
<path d="M31.3984 19.2048L37.6912 12.9121L44.0261 19.2471" stroke="#03303D" stroke-miterlimit="10"/>
<path d="M31.3984 23.4282L37.6912 17.1777L44.0261 23.5127" stroke="#03303D" stroke-miterlimit="10"/>
<path d="M31.3984 27.6931L37.6912 21.4004L44.0261 27.7353" stroke="#03303D" stroke-miterlimit="10"/>
<path d="M31.3984 31.9592L37.6912 25.6665L44.0261 32.0014" stroke="#03303D" stroke-miterlimit="10"/>
<path d="M62.1139 27.3969L58.2284 20.6819H60.3823L57.2571 15.2761H58.9886L54.9343 8.22314L50.8799 15.2761H52.6537L49.5284 20.6819H51.6823L47.7969 27.3969H62.1139Z" stroke="#03303D" stroke-miterlimit="10"/>
<path d="M54.9375 8.64453V35.2936" stroke="#03303D" stroke-miterlimit="10"/>
<path d="M66.7578 31.9146L70.1787 35.2932L73.7263 31.9146" stroke="#03303D" stroke-miterlimit="10"/>
<path d="M70.2656 29.6343V35.2935" stroke="#03303D" stroke-miterlimit="10"/>
<path d="M76.5938 31.9146L79.9724 35.2932L83.52 31.9146" stroke="#03303D" stroke-miterlimit="10"/>
<path d="M80.0547 29.6343V35.2935" stroke="#03303D" stroke-miterlimit="10"/>
<path d="M71.5257 19.6278C70.3628 19.6278 69.4141 18.7232 69.4141 17.6144V13.6169C69.4141 12.5081 70.3628 11.6035 71.5257 11.6035C72.6886 11.6035 73.6374 12.5081 73.6374 13.6169V17.6144C73.6068 18.7232 72.658 19.6278 71.5257 19.6278Z" stroke="#03303D" stroke-miterlimit="10"/>
<path d="M74.4844 24.6943H82.0863V17.5146L74.4844 24.6943Z" stroke="#03303D" stroke-miterlimit="10"/>
<path d="M104.049 17.213C102.825 12.5673 98.1789 9.90666 93.66 11.0047C89.5634 12.0183 86.7337 16.495 87.1983 20.7183C87.3672 22.0698 87.7473 23.4212 88.2541 24.6882C89.8168 28.5314 92.1396 31.8678 95.0114 34.8664C95.1381 34.9931 95.307 35.162 95.476 35.2887C95.6449 35.4154 95.8561 35.4154 95.9828 35.2887C96.1939 35.0775 96.4051 34.9086 96.574 34.6974C98.4745 32.7125 100.122 30.5586 101.473 28.1936C102.656 26.1241 103.627 23.9703 104.049 21.6052C104.387 20.1693 104.472 18.6911 104.049 17.213Z" stroke="#03303D" stroke-miterlimit="10"/>
<path d="M92.7734 19.1548C92.8157 17.5499 94.1249 16.2407 95.7297 16.2407C97.3768 16.2407 98.6861 17.5922 98.6861 19.197C98.6861 20.8441 97.3346 22.1533 95.7297 22.1533C95.6875 22.1533 95.6453 22.1533 95.6031 22.1533" stroke="#03303D" stroke-miterlimit="10"/>
<path d="M22.7922 14.5596H4.96991C2.7738 14.5596 1 16.3334 1 18.5295V21.8237V24.3999V34.9159C1 35.3804 1.59126 35.5494 1.84466 35.2115L7.08156 28.3698H22.75C24.9461 28.3698 26.7199 26.596 26.7199 24.3999V18.4872C26.8044 16.3334 24.9884 14.5596 22.7922 14.5596Z" stroke="#03303D" stroke-miterlimit="10"/>
<path d="M8.17969 21.5273H9.86901" stroke="#03303D" stroke-miterlimit="10"/>
<path d="M13.0781 21.5273H14.7674" stroke="#03303D" stroke-miterlimit="10"/>
<path d="M17.9375 21.5273H19.669" stroke="#03303D" stroke-miterlimit="10"/>
<path d="M119.547 9.32954C119.547 12.6956 121.03 15.6623 123.426 17.6591C125.765 15.6623 127.306 12.6385 127.306 9.32954C127.306 5.96349 125.823 2.99681 123.426 1C121.03 2.99681 119.547 6.02054 119.547 9.32954Z" stroke="#03303D" stroke-miterlimit="10"/>
<path d="M123.43 17.7158V36.9993" stroke="#03303D" stroke-miterlimit="10"/>
<path d="M109.398 24.5058C109.398 27.8718 110.882 30.8385 113.278 32.8353C115.617 30.8385 117.157 27.8148 117.157 24.5058C117.157 21.1398 115.674 18.1731 113.278 16.1763C110.939 18.1731 109.398 21.1968 109.398 24.5058Z" stroke="#03303D" stroke-miterlimit="10"/>
<path d="M113.281 31.9224V37" stroke="#03303D" stroke-miterlimit="10"/>
</svg>
