<svg width="59" height="17" viewBox="0 0 59 17" fill="none" xmlns="http://www.w3.org/2000/svg">
<path d="M41.0859 6.25781V15.9971" stroke="#03303D" stroke-width="0.7" stroke-miterlimit="10"/>
<path d="M41.0873 10.0392C43.1418 10.0392 44.8074 8.34627 44.8074 6.25789C44.8074 4.16952 43.1418 2.47656 41.0873 2.47656C39.0327 2.47656 37.3672 4.16952 37.3672 6.25789C37.3672 8.34627 39.0327 10.0392 41.0873 10.0392Z" stroke="#03303D" stroke-width="0.7" stroke-miterlimit="10"/>
<path d="M43.7734 8.98828V15.9976" stroke="#03303D" stroke-width="0.7" stroke-miterlimit="10"/>
<path d="M43.7717 11.7177C45.255 11.7177 46.4574 10.4955 46.4574 8.98775C46.4574 7.48005 45.255 6.25781 43.7717 6.25781C42.2884 6.25781 41.0859 7.48005 41.0859 8.98775C41.0859 10.4955 42.2884 11.7177 43.7717 11.7177Z" stroke="#03303D" stroke-width="0.7" stroke-miterlimit="10"/>
<path d="M1 13.3242L2.83839 15.1698L4.74488 13.3242" stroke="#03303D" stroke-width="0.7" stroke-miterlimit="10"/>
<path d="M2.88281 12.0781V15.1695" stroke="#03303D" stroke-width="0.7" stroke-miterlimit="10"/>
<path d="M48.6562 13.3242L50.472 15.1698L52.3784 13.3242" stroke="#03303D" stroke-width="0.7" stroke-miterlimit="10"/>
<path d="M50.5234 12.0781V15.1695" stroke="#03303D" stroke-width="0.7" stroke-miterlimit="10"/>
<path d="M6.82812 13.3242L8.64383 15.1698L10.5503 13.3242" stroke="#03303D" stroke-width="0.7" stroke-miterlimit="10"/>
<path d="M8.69531 12.0781V15.1695" stroke="#03303D" stroke-width="0.7" stroke-miterlimit="10"/>
<path d="M54.4141 13.3242L56.2298 15.1698L58.1363 13.3242" stroke="#03303D" stroke-width="0.7" stroke-miterlimit="10"/>
<path d="M56.2812 12.0781V15.1695" stroke="#03303D" stroke-width="0.7" stroke-miterlimit="10"/>
<path d="M13.1406 3.91406L14.9949 5.79886L16.8004 3.96366" stroke="#03303D" stroke-width="0.7" stroke-miterlimit="10"/>
<path d="M13.1406 9.94141L14.9949 11.8262L16.8004 9.99101" stroke="#03303D" stroke-width="0.7" stroke-miterlimit="10"/>
<path d="M11.9922 5.80078L14.9932 8.87597L17.9454 5.89998" stroke="#03303D" stroke-width="0.7" stroke-miterlimit="10"/>
<path d="M14.9688 2.47656V15.5709" stroke="#03303D" stroke-width="0.7" stroke-miterlimit="10"/>
<path d="M33.6883 4.41016H22.3203V15.9653H33.6883V4.41016Z" stroke="#03303D" stroke-width="0.7" stroke-miterlimit="10"/>
<path d="M28.0138 4.39995H25.1309C24.7692 4.40423 24.4158 4.28984 24.1231 4.07378C23.8305 3.85772 23.6141 3.55151 23.5062 3.20057C23.3983 2.84963 23.4047 2.47268 23.5242 2.12567C23.6438 1.77867 23.8702 1.4801 24.17 1.27428C24.4766 1.08546 24.8302 0.990474 25.1886 1.00075C27.5333 1.00075 28.0138 4.39995 28.0138 4.39995Z" stroke="#03303D" stroke-width="0.7" stroke-miterlimit="10"/>
<path d="M28.0156 4.3992H30.8985C31.2602 4.40348 31.6136 4.28909 31.9063 4.07304C32.1989 3.85698 32.4153 3.55076 32.5232 3.19982C32.6311 2.84888 32.6247 2.47193 32.5052 2.12492C32.3856 1.77792 32.1592 1.47935 31.8594 1.27353C31.5701 1.0939 31.2375 0.999211 30.8985 1C28.4961 1 28.0156 4.3992 28.0156 4.3992Z" stroke="#03303D" stroke-width="0.7" stroke-miterlimit="10"/>
<path d="M28.0156 4.48828V15.9653" stroke="#03303D" stroke-width="0.7" stroke-miterlimit="10"/>
<path d="M22.3203 10.2227H33.6883" stroke="#03303D" stroke-width="0.7" stroke-miterlimit="10"/>
<path d="M24.9375 7.98504L28.0125 4.85938L31.0972 8.0046" stroke="#03303D" stroke-width="0.7" stroke-miterlimit="10"/>
</svg>
