<svg width="124" height="33" viewBox="0 0 124 33" fill="none" xmlns="http://www.w3.org/2000/svg">
<path d="M117.086 1.35742V31.5583" stroke="#03303D" stroke-miterlimit="10"/>
<path d="M111.18 6.90543L117.045 1L122.991 6.94506" stroke="#03303D" stroke-miterlimit="10"/>
<path d="M111.18 10.9093L117.045 5.00391L122.991 10.949" stroke="#03303D" stroke-miterlimit="10"/>
<path d="M111.18 14.8712L117.045 9.00537L122.991 14.9504" stroke="#03303D" stroke-miterlimit="10"/>
<path d="M111.18 18.8742L117.045 12.9688L122.991 18.9138" stroke="#03303D" stroke-miterlimit="10"/>
<path d="M111.18 22.8776L117.045 16.9722L122.991 22.9172" stroke="#03303D" stroke-miterlimit="10"/>
<path d="M111.18 26.8419L117.045 20.9761L122.991 26.9211" stroke="#03303D" stroke-miterlimit="10"/>
<path d="M106.976 16.6167C108.136 16.6167 109.076 15.6763 109.076 14.5161C109.076 13.356 108.136 12.4155 106.976 12.4155C105.815 12.4155 104.875 13.356 104.875 14.5161C104.875 15.6763 105.815 16.6167 106.976 16.6167Z" stroke="#03303D" stroke-miterlimit="10"/>
<path d="M96.8753 14.6732C95.3692 14.6732 94.1406 13.4446 94.1406 11.9385V6.50866C94.1406 5.00258 95.3692 3.77393 96.8753 3.77393C98.3814 3.77393 99.61 5.00258 99.61 6.50866V11.9781C99.5704 13.4446 98.3418 14.6732 96.8753 14.6732Z" stroke="#03303D" stroke-miterlimit="10"/>
<path d="M23.1949 19.62C23.0794 20.3178 22.9126 21.004 22.6401 21.6574C22.0437 23.0927 21.1651 24.3458 20.1467 25.5061C17.9627 27.9933 15.3775 29.9995 12.5926 31.7641C12.2791 31.9625 11.9771 31.9654 11.6602 31.7693C9.8494 30.6497 8.13658 29.3792 6.54002 27.9714C5.24915 26.833 4.05239 25.607 3.03978 24.2103C2.1692 23.0102 1.46487 21.7277 1.14678 20.2618C0.801724 18.6833 1.0702 17.0328 1.89784 15.6445C2.72547 14.2563 4.05038 13.2342 5.6042 12.7853C7.97464 12.0933 10.0951 12.6457 11.9073 14.3273C12.0701 14.4784 12.1486 14.4899 12.3114 14.3273C15.2557 11.4226 20.1923 12.0783 22.3179 15.6536C22.7665 16.4047 23.0549 17.2403 23.1649 18.108C23.1726 18.1504 23.1826 18.1923 23.1949 18.2337V19.62Z" stroke="#03303D" stroke-miterlimit="10"/>
<path d="M66.5485 11.9858H46.9688V31.7469H66.5485V11.9858Z" stroke="#03303D" stroke-miterlimit="10"/>
<path d="M56.7627 11.9748H51.806C48.9472 11.9748 47.7543 8.15025 50.1812 6.62458C50.6491 6.32878 51.225 6.15234 51.9243 6.15234C55.94 6.15753 56.7627 11.9748 56.7627 11.9748Z" stroke="#03303D" stroke-miterlimit="10"/>
<path d="M56.7656 11.9748H61.7223C64.5811 11.9748 65.7739 8.15025 63.347 6.62458C62.8792 6.32878 62.3033 6.15234 61.604 6.15234C57.5883 6.15753 56.7656 11.9748 56.7656 11.9748Z" stroke="#03303D" stroke-miterlimit="10"/>
<path d="M56.7656 12.1196V31.751" stroke="#03303D" stroke-miterlimit="10"/>
<path d="M46.9688 21.9399H66.5485" stroke="#03303D" stroke-miterlimit="10"/>
<path d="M51.4609 18.0926C51.8671 17.6826 56.7569 12.7476 56.7569 12.7476C56.7569 12.7476 62.0735 18.1134 62.0786 18.1185" stroke="#03303D" stroke-miterlimit="10"/>
<path d="M77.8516 12.5352V32.0004" stroke="#03303D" stroke-miterlimit="10"/>
<path d="M77.8534 20.1064C81.9965 20.1064 85.3552 16.7166 85.3552 12.5351C85.3552 8.35364 81.9965 4.96387 77.8534 4.96387C73.7102 4.96387 70.3516 8.35364 70.3516 12.5351C70.3516 16.7166 73.7102 20.1064 77.8534 20.1064Z" stroke="#03303D" stroke-miterlimit="10"/>
<path d="M83.2578 17.9897V32.001" stroke="#03303D" stroke-miterlimit="10"/>
<path d="M83.2555 23.4432C86.2401 23.4432 88.6595 21.0013 88.6595 17.9892C88.6595 14.977 86.2401 12.5352 83.2555 12.5352C80.271 12.5352 77.8516 14.977 77.8516 17.9892C77.8516 21.0013 80.271 23.4432 83.2555 23.4432Z" stroke="#03303D" stroke-miterlimit="10"/>
<path d="M98.7109 28.3286L102.074 31.7224L105.56 28.3286" stroke="#03303D" stroke-miterlimit="10"/>
<path d="M102.141 26.0674V31.7238" stroke="#03303D" stroke-miterlimit="10"/>
<path d="M90.5703 28.2305L93.933 31.6243L97.4191 28.2305" stroke="#03303D" stroke-miterlimit="10"/>
<path d="M94 25.9692V31.6256" stroke="#03303D" stroke-miterlimit="10"/>
<path d="M41.5379 22.8348L37.3217 15.4659H39.6612L36.2471 9.50857H38.1649L33.7533 1.79199L29.3417 9.50857H31.2596L27.8506 15.4659H30.185L25.9688 22.8348H41.5379Z" stroke="#03303D" stroke-miterlimit="10"/>
<path d="M33.7578 2.24316V31.5267" stroke="#03303D" stroke-miterlimit="10"/>
</svg>
