<svg width="137" height="34" viewBox="0 0 137 34" fill="none" xmlns="http://www.w3.org/2000/svg">
<path d="M135.001 32.7854H125.07V22.8551L135.001 32.7854Z" stroke="#03303D" stroke-miterlimit="10"/>
<path d="M129.856 21.9375C131.411 21.9375 132.687 20.6613 132.687 19.106V13.403C132.687 11.8476 131.411 10.5714 129.856 10.5714C128.301 10.5714 127.024 11.8476 127.024 13.403V19.106C126.984 20.6613 128.301 21.9375 129.856 21.9375Z" stroke="#03303D" stroke-miterlimit="10"/>
<path d="M75.1388 32.386C76.3502 32.386 77.3322 31.4039 77.3322 30.1925C77.3322 28.9811 76.3502 27.9991 75.1388 27.9991C73.9274 27.9991 72.9453 28.9811 72.9453 30.1925C72.9453 31.4039 73.9274 32.386 75.1388 32.386Z" stroke="#03303D" stroke-miterlimit="10"/>
<path d="M58.1096 20.8599C56.8334 22.1361 56.1953 23.811 56.1953 25.486C57.8703 25.486 59.5453 24.848 60.8215 23.5718C62.0977 22.2956 62.7358 20.6206 62.7358 18.9456C61.0608 18.9855 59.3858 19.5837 58.1096 20.8599Z" stroke="#03303D" stroke-miterlimit="10"/>
<path d="M60.8606 27.4005C59.5844 26.1243 57.9094 25.4862 56.2344 25.4862C56.2344 27.1612 56.8725 28.8362 58.1487 30.1124C59.4248 31.3886 61.0998 32.0267 62.7748 32.0267C62.7748 30.3916 62.1368 28.7166 60.8606 27.4005Z" stroke="#03303D" stroke-miterlimit="10"/>
<path d="M54.3215 30.1521C55.5977 28.8759 56.2358 27.2009 56.2358 25.5259C54.5608 25.5259 52.8858 26.164 51.6096 27.4402C50.3334 28.7164 49.6953 30.3914 49.6953 32.0664C51.3304 32.0664 53.0453 31.4283 54.3215 30.1521Z" stroke="#03303D" stroke-miterlimit="10"/>
<path d="M51.5705 23.6115C52.8467 24.8877 54.5217 25.5258 56.1967 25.5258C56.1967 23.8508 55.5586 22.1758 54.2824 20.8996C53.0062 19.6234 51.3312 18.9853 49.6562 18.9853C49.6562 20.6603 50.2943 22.3353 51.5705 23.6115Z" stroke="#03303D" stroke-miterlimit="10"/>
<path d="M96.0002 20.8599C94.724 22.1361 94.0859 23.811 94.0859 25.486C95.7609 25.486 97.4359 24.848 98.7121 23.5718C99.9883 22.2956 100.626 20.6206 100.626 18.9456C98.9514 18.9855 97.2764 19.5837 96.0002 20.8599Z" stroke="#03303D" stroke-miterlimit="10"/>
<path d="M98.7121 27.4005C97.4359 26.1243 95.7609 25.4862 94.0859 25.4862C94.0859 27.1612 94.724 28.8362 96.0002 30.1124C97.2764 31.3886 98.9514 32.0267 100.626 32.0267C100.626 30.3916 99.9883 28.7166 98.7121 27.4005Z" stroke="#03303D" stroke-miterlimit="10"/>
<path d="M92.1731 30.1521C93.4493 28.8759 94.0873 27.2009 94.0873 25.5259C92.4123 25.5259 90.7374 26.164 89.4612 27.4402C88.185 28.7164 87.5469 30.3914 87.5469 32.0664C89.2219 32.0664 90.8969 31.4283 92.1731 30.1521Z" stroke="#03303D" stroke-miterlimit="10"/>
<path d="M89.4612 23.6115C90.7374 24.8877 92.4123 25.5258 94.0873 25.5258C94.0873 23.8508 93.4493 22.1758 92.1731 20.8996C90.8969 19.6234 89.2219 18.9853 87.5469 18.9853C87.5469 20.6603 88.185 22.3353 89.4612 23.6115Z" stroke="#03303D" stroke-miterlimit="10"/>
<path d="M79.884 8.29852C78.0894 8.29852 76.4542 9.05626 75.2578 10.2128C76.4542 11.4092 78.0894 12.1271 79.884 12.1271C81.6786 12.1271 83.3138 11.3694 84.5102 10.2128C83.3138 9.05626 81.6786 8.29852 79.884 8.29852Z" stroke="#03303D" stroke-miterlimit="10"/>
<path d="M77.1723 14.8782C77.1723 13.0836 76.4146 11.4485 75.258 10.2521C74.0616 11.4485 73.3438 13.0836 73.3438 14.8782C73.3438 16.6729 74.1015 18.308 75.258 19.5044C76.4146 18.308 77.1723 16.6729 77.1723 14.8782Z" stroke="#03303D" stroke-miterlimit="10"/>
<path d="M70.634 12.1668C72.4286 12.1668 74.0638 11.4091 75.2602 10.2526C74.0638 9.05613 72.4286 8.33826 70.634 8.33826C68.8394 8.33826 67.2042 9.09601 66.0078 10.2526C67.1644 11.449 68.7995 12.1668 70.634 12.1668Z" stroke="#03303D" stroke-miterlimit="10"/>
<path d="M73.3047 5.62618C73.3047 7.42082 74.0624 9.05595 75.219 10.2524C76.4154 9.05595 77.1333 7.42082 77.1333 5.62618C77.1333 3.83154 76.3755 2.19643 75.219 1C74.0624 2.15655 73.3047 3.79166 73.3047 5.62618Z" stroke="#03303D" stroke-miterlimit="10"/>
<path d="M112.07 11.5687V32.6259" stroke="#03303D" stroke-miterlimit="10"/>
<path d="M112.074 19.7443C116.589 19.7443 120.25 16.084 120.25 11.5687C120.25 7.05347 116.589 3.39313 112.074 3.39313C107.559 3.39313 103.898 7.05347 103.898 11.5687C103.898 16.084 107.559 19.7443 112.074 19.7443Z" stroke="#03303D" stroke-miterlimit="10"/>
<path d="M117.977 17.4714V32.6262" stroke="#03303D" stroke-miterlimit="10"/>
<path d="M117.973 23.3735C121.232 23.3735 123.875 20.7309 123.875 17.4711C123.875 14.2113 121.232 11.5687 117.973 11.5687C114.713 11.5687 112.07 14.2113 112.07 17.4711C112.07 20.7309 114.713 23.3735 117.973 23.3735Z" stroke="#03303D" stroke-miterlimit="10"/>
<path d="M7.77976 22.5751C11.5241 22.5751 14.5595 19.5397 14.5595 15.7953C14.5595 12.0509 11.5241 9.01553 7.77976 9.01553C4.0354 9.01553 1 12.0509 1 15.7953C1 19.5397 4.0354 22.5751 7.77976 22.5751Z" stroke="#03303D" stroke-miterlimit="10"/>
<path d="M7.78125 8.97581V33.2633" stroke="#03303D" stroke-miterlimit="10"/>
<path d="M13.5248 12.1266L7.74204 17.9492L2.03906 12.2462" stroke="#03303D" stroke-miterlimit="10"/>
<path d="M25.5268 15.1635C21.2196 15.1635 17.75 18.7199 17.75 23.0442V23.0847H33.3434V23.0442C33.3434 18.6795 29.8339 15.1635 25.5268 15.1635Z" stroke="#03303D" stroke-miterlimit="10"/>
<path d="M25.5234 23.0844V32.8242" stroke="#03303D" stroke-miterlimit="10"/>
<path d="M39.7221 2.59477C35.415 2.59477 31.9453 6.15121 31.9453 10.4755V10.5159H47.4989V10.4755C47.4989 6.15121 44.0292 2.59477 39.7221 2.59477Z" stroke="#03303D" stroke-miterlimit="10"/>
<path d="M39.7266 10.5562V32.8243" stroke="#03303D" stroke-miterlimit="10"/>
</svg>
