<svg width="154" height="40" viewBox="0 0 154 40" fill="none" xmlns="http://www.w3.org/2000/svg">
<path d="M93.1719 34.286L96.5201 37.6835L100.016 34.286" stroke="#03303D" stroke-miterlimit="10"/>
<path d="M96.5703 32.0212V37.6837" stroke="#03303D" stroke-miterlimit="10"/>
<path d="M82.2422 34.286L85.6396 37.6835L89.1356 34.286" stroke="#03303D" stroke-miterlimit="10"/>
<path d="M85.6875 32.0212V37.6837" stroke="#03303D" stroke-miterlimit="10"/>
<path d="M122.142 16.4028C120.714 10.9866 115.298 7.88453 110.029 9.16474C105.253 10.3465 101.954 15.5658 102.496 20.4896C102.693 22.0653 103.136 23.6409 103.727 25.1181C105.548 29.5988 108.257 33.4887 111.605 36.9846C111.753 37.1323 111.949 37.3293 112.146 37.477C112.343 37.6247 112.59 37.6247 112.737 37.477C112.983 37.2308 113.23 37.0339 113.427 36.7877C115.642 34.4734 117.563 31.9623 119.138 29.2049C120.517 26.7922 121.649 24.281 122.142 21.5237C122.536 19.8495 122.634 18.1262 122.142 16.4028Z" stroke="#03303D" stroke-miterlimit="10"/>
<path d="M109 18.6682C109.049 16.7971 110.576 15.2708 112.447 15.2708C114.367 15.2708 115.893 16.8464 115.893 18.7175C115.893 20.6378 114.318 22.1642 112.447 22.1642C112.397 22.1642 112.348 22.1642 112.299 22.1642" stroke="#03303D" stroke-miterlimit="10"/>
<path d="M63.2812 13.0643V39.0624" stroke="#03303D" stroke-miterlimit="10"/>
<path d="M63.2814 23.1582C68.8562 23.1582 73.3754 18.639 73.3754 13.0643C73.3754 7.48955 68.8562 2.97034 63.2814 2.97034C57.7067 2.97034 53.1875 7.48955 53.1875 13.0643C53.1875 18.639 57.7067 23.1582 63.2814 23.1582Z" stroke="#03303D" stroke-miterlimit="10"/>
<path d="M70.5703 20.3521V39.0628" stroke="#03303D" stroke-miterlimit="10"/>
<path d="M70.5686 27.639C74.5933 27.639 77.8559 24.3763 77.8559 20.3517C77.8559 16.327 74.5933 13.0643 70.5686 13.0643C66.5439 13.0643 63.2812 16.327 63.2812 20.3517C63.2812 24.3763 66.5439 27.639 70.5686 27.639Z" stroke="#03303D" stroke-miterlimit="10"/>
<path d="M97.4558 13.8023L97.4558 26.0627L85.1953 26.0627L97.4558 13.8023Z" stroke="#03303D" stroke-miterlimit="10"/>
<path d="M41.3203 1.49243V38.9631" stroke="#03303D" stroke-miterlimit="10"/>
<path d="M33.9844 8.33657L41.3209 1L48.7068 8.38581" stroke="#03303D" stroke-miterlimit="10"/>
<path d="M33.9844 13.3095L41.3209 5.9729L48.7068 13.3587" stroke="#03303D" stroke-miterlimit="10"/>
<path d="M33.9844 18.2824L41.3209 10.9458L48.7068 18.3316" stroke="#03303D" stroke-miterlimit="10"/>
<path d="M33.9844 23.207L41.3209 15.9197L48.7068 23.3055" stroke="#03303D" stroke-miterlimit="10"/>
<path d="M33.9844 28.1802L41.3209 20.8436L48.7068 28.2294" stroke="#03303D" stroke-miterlimit="10"/>
<path d="M33.9844 33.1531L41.3209 25.8165L48.7068 33.2023" stroke="#03303D" stroke-miterlimit="10"/>
<path d="M85.4427 16.7564C86.6596 16.7564 87.658 15.8166 87.658 14.6712V10.4712C87.658 9.32571 86.6596 8.38586 85.4427 8.38586C84.2257 8.38586 83.2273 9.32571 83.2273 10.4712V14.6712C83.1961 15.8166 84.2257 16.7564 85.4427 16.7564Z" stroke="#03303D" stroke-miterlimit="10"/>
<path d="M26.4072 14.2944H5.62845C3.06804 14.2944 1 16.3625 1 18.9229V22.7635V25.7671V38.0275C1 38.5691 1.68934 38.7661 1.98477 38.3722L8.09039 30.3955H26.3579C28.9184 30.3955 30.9864 28.3275 30.9864 25.7671V18.8736C31.0849 16.3625 28.9676 14.2944 26.4072 14.2944Z" stroke="#03303D" stroke-miterlimit="10"/>
<path d="M148.12 27.6387C149.235 27.6387 150.139 26.7348 150.139 25.6199C150.139 24.5049 149.235 23.6011 148.12 23.6011C147.005 23.6011 146.102 24.5049 146.102 25.6199C146.102 26.7348 147.005 27.6387 148.12 27.6387Z" stroke="#03303D" stroke-miterlimit="10"/>
<path d="M152.995 37.437H130V30.1004V21.1882H152.995V37.437Z" stroke="#03303D" stroke-miterlimit="10"/>
<path d="M130 31.7251L134.973 26.4073L140.094 31.7251L144.132 28.3277L152.995 37.2399" stroke="#03303D" stroke-miterlimit="10"/>
</svg>
