<svg width="112" height="31" viewBox="0 0 112 31" fill="none" xmlns="http://www.w3.org/2000/svg">
<path d="M76.328 25.6506C74.891 25.6506 73.7188 24.4658 73.7188 23.0136V17.7777C73.7188 16.3254 74.891 15.1407 76.328 15.1407C77.765 15.1407 78.9373 16.3254 78.9373 17.7777V23.0136C78.8995 24.4658 77.7272 25.6506 76.328 25.6506Z" stroke="#03303D" stroke-miterlimit="10"/>
<path d="M13.8195 23.3196L10.3404 17.2429H12.269L9.43286 12.3511H11.0211L7.39081 5.96869L3.76053 12.3511H5.34879L2.55043 17.2429H4.44121L1 23.3196H13.8195Z" stroke="#03303D" stroke-miterlimit="10"/>
<path d="M7.39062 6.35028V30.504" stroke="#03303D" stroke-miterlimit="10"/>
<path d="M29.9367 23.3196L26.4576 17.2429H28.3862L25.5879 12.3511H27.1761L23.5458 5.96869L19.9155 12.3511H21.466L18.6676 17.2429H20.5962L17.1172 23.3196H29.9367Z" stroke="#03303D" stroke-miterlimit="10"/>
<path d="M23.5469 6.35028V30.504" stroke="#03303D" stroke-miterlimit="10"/>
<path d="M84.1139 10.8605C85.3462 10.8605 86.345 9.85095 86.345 8.60563C86.345 7.36031 85.3462 6.35077 84.1139 6.35077C82.8817 6.35077 81.8828 7.36031 81.8828 8.60563C81.8828 9.85095 82.8817 10.8605 84.1139 10.8605Z" stroke="#03303D" stroke-miterlimit="10"/>
<path d="M92.278 18.9243C93.5102 18.9243 94.5091 17.9147 94.5091 16.6694C94.5091 15.4241 93.5102 14.4146 92.278 14.4146C91.0458 14.4146 90.0469 15.4241 90.0469 16.6694C90.0469 17.9147 91.0458 18.9243 92.278 18.9243Z" stroke="#03303D" stroke-miterlimit="10"/>
<path d="M100.567 10.8605C101.799 10.8605 102.798 9.85095 102.798 8.60563C102.798 7.36031 101.799 6.35077 100.567 6.35077C99.3349 6.35077 98.3359 7.36031 98.3359 8.60563C98.3359 9.85095 99.3349 10.8605 100.567 10.8605Z" stroke="#03303D" stroke-miterlimit="10"/>
<path d="M108.77 18.9243C110.002 18.9243 111.001 17.9147 111.001 16.6694C111.001 15.4241 110.002 14.4146 108.77 14.4146C107.538 14.4146 106.539 15.4241 106.539 16.6694C106.539 17.9147 107.538 18.9243 108.77 18.9243Z" stroke="#03303D" stroke-miterlimit="10"/>
<path d="M85.6328 10.249L90.7379 15.0645" stroke="#03303D" stroke-miterlimit="10"/>
<path d="M102.117 10.249L107.222 15.0645" stroke="#03303D" stroke-miterlimit="10"/>
<path d="M98.9757 10.0582L94.2109 15.2176" stroke="#03303D" stroke-miterlimit="10"/>
<path d="M67.6342 16.1346H55.1173C54.5878 16.1346 54.1719 15.7143 54.1719 15.1792V6.92413C54.1719 6.38909 54.5878 5.96869 55.1173 5.96869H67.6342C68.1636 5.96869 68.5796 6.38909 68.5796 6.92413V15.1792C68.6174 15.7143 68.1636 16.1346 67.6342 16.1346Z" stroke="#03303D" stroke-miterlimit="10"/>
<path d="M66.5349 8.52972H64.0391" stroke="#03303D" stroke-miterlimit="10"/>
<path d="M56.0625 13.7266H66.5752" stroke="#03303D" stroke-miterlimit="10"/>
<path d="M43.7004 2.75801C42.5282 3.94276 41.9609 5.47149 41.9609 7.0002C43.4736 7.0002 45.024 6.42692 46.1585 5.24217C47.3307 4.05742 47.898 2.52871 47.898 1C46.3853 1 44.8727 1.61148 43.7004 2.75801Z" stroke="#03303D" stroke-miterlimit="10"/>
<path d="M46.1585 8.75752C44.9862 7.57277 43.4736 6.99951 41.9609 6.99951C41.9609 8.52823 42.5282 10.0951 43.7004 11.2417C44.8727 12.4264 46.3853 12.9997 47.898 12.9997C47.898 11.5092 47.3307 9.94228 46.1585 8.75752Z" stroke="#03303D" stroke-miterlimit="10"/>
<path d="M40.221 11.2804C41.3932 10.0956 41.9605 8.56692 41.9605 7.03821C40.4479 7.03821 38.8974 7.61149 37.7629 8.79624C36.5907 9.981 36.0234 11.5097 36.0234 13.0384C37.5361 13.0384 39.0487 12.4652 40.221 11.2804Z" stroke="#03303D" stroke-miterlimit="10"/>
<path d="M37.7629 5.28089C38.9352 6.46564 40.4479 7.0389 41.9605 7.0389C41.9605 5.51019 41.3932 3.94327 40.221 2.79673C39.0487 1.61198 37.5361 1.0387 36.0234 1.0387C36.0234 2.56741 36.5907 4.09614 37.7629 5.28089Z" stroke="#03303D" stroke-miterlimit="10"/>
<path d="M95.4609 27.5989L98.0324 30.236L100.717 27.5989" stroke="#03303D" stroke-miterlimit="10"/>
<path d="M98.0703 25.8414V30.2365" stroke="#03303D" stroke-miterlimit="10"/>
<path d="M87.0625 27.5989L89.6718 30.236L92.3567 27.5989" stroke="#03303D" stroke-miterlimit="10"/>
<path d="M89.7109 25.8414V30.2365" stroke="#03303D" stroke-miterlimit="10"/>
<path d="M103.594 27.5989L106.165 30.236L108.85 27.5989" stroke="#03303D" stroke-miterlimit="10"/>
<path d="M106.242 25.8414V30.2365" stroke="#03303D" stroke-miterlimit="10"/>
<path d="M48.3777 30.4282H46.5993C46.1547 30.4282 45.7991 30.1287 45.7398 29.6793L45.147 26.2346C46.3622 25.4558 47.696 24.8267 48.7333 23.7783C48.9408 23.5686 49.1483 23.3589 49.2965 23.1193C49.5929 22.64 49.7114 21.9511 49.2372 21.5317C48.9112 21.2322 48.4369 21.2022 48.022 21.1423C47.5774 21.0524 47.1032 20.9925 46.6586 20.9326C46.6586 20.0639 45.9473 19.345 45.0877 19.345C44.2282 19.345 43.5465 19.9741 43.5168 20.9925C36.0478 22.1308 35.6328 30.3683 35.6328 30.3683H42.7462" stroke="#03303D" stroke-miterlimit="10"/>
<path d="M35.7188 30.3979C38.001 30.338 40.1943 29.4094 41.943 27.8817C42.5061 27.3725 43.2175 26.6236 43.3064 25.8148C43.3953 25.0959 42.8025 24.3171 42.0912 24.1973C41.1427 24.0475 40.2239 24.6766 39.5126 25.2457C38.4159 26.1144 37.3785 27.2227 36.6079 28.4209C36.4005 28.7204 36.2226 29.0499 36.0744 29.3794C36.0744 29.4992 35.7484 30.3979 35.7188 30.3979Z" stroke="#03303D" stroke-miterlimit="10"/>
</svg>
