<svg width="91" height="26" viewBox="0 0 91 26" fill="none" xmlns="http://www.w3.org/2000/svg">
<path d="M88.8934 24.9095H81.5156V17.4395L88.8934 24.9095Z" stroke="#03303D" stroke-miterlimit="10"/>
<path d="M86.7215 16.6003C87.8771 16.6003 88.8252 15.6403 88.8252 14.4703V10.1803C88.8252 9.01029 87.8771 8.05029 86.7215 8.05029C85.566 8.05029 84.6178 9.01029 84.6178 10.1803V14.4703C84.5882 15.6403 85.566 16.6003 86.7215 16.6003Z" stroke="#03303D" stroke-miterlimit="10"/>
<path d="M44.4109 24.6105C45.3109 24.6105 46.0405 23.8718 46.0405 22.9605C46.0405 22.0493 45.3109 21.3105 44.4109 21.3105C43.5109 21.3105 42.7812 22.0493 42.7812 22.9605C42.7812 23.8718 43.5109 24.6105 44.4109 24.6105Z" stroke="#03303D" stroke-miterlimit="10"/>
<path d="M33.4769 15.8497C32.5288 16.8097 32.0547 18.0697 32.0547 19.3297C33.2991 19.3297 34.5436 18.8497 35.4917 17.8897C36.4399 16.9297 36.9139 15.6697 36.9139 14.4097C35.6695 14.4397 34.4251 14.8897 33.4769 15.8497Z" stroke="#03303D" stroke-miterlimit="10"/>
<path d="M35.523 20.7696C34.5748 19.8096 33.3304 19.3296 32.0859 19.3296C32.0859 20.5896 32.56 21.8496 33.5082 22.8096C34.4563 23.7696 35.7008 24.2496 36.9452 24.2496C36.9452 23.0196 36.4711 21.7596 35.523 20.7696Z" stroke="#03303D" stroke-miterlimit="10"/>
<path d="M30.6636 22.8394C31.6117 21.8794 32.0858 20.6194 32.0858 19.3594C30.8414 19.3594 29.5969 19.8394 28.6488 20.7994C27.7006 21.7594 27.2266 23.0194 27.2266 24.2794C28.4414 24.2794 29.7155 23.7994 30.6636 22.8394Z" stroke="#03303D" stroke-miterlimit="10"/>
<path d="M28.6175 17.919C29.5657 18.879 30.8101 19.359 32.0546 19.359C32.0546 18.099 31.5805 16.839 30.6323 15.879C29.6842 14.919 28.4398 14.439 27.1953 14.439C27.1953 15.699 27.6694 16.959 28.6175 17.919Z" stroke="#03303D" stroke-miterlimit="10"/>
<path d="M58.1332 15.8497C57.185 16.8097 56.7109 18.0697 56.7109 19.3297C57.9554 19.3297 59.1998 18.8497 60.148 17.8897C61.0961 16.9297 61.5702 15.6697 61.5702 14.4097C60.3258 14.4397 59.0813 14.8897 58.1332 15.8497Z" stroke="#03303D" stroke-miterlimit="10"/>
<path d="M60.148 20.7696C59.1998 19.8096 57.9554 19.3296 56.7109 19.3296C56.7109 20.5896 57.185 21.8496 58.1332 22.8096C59.0813 23.7696 60.3258 24.2496 61.5702 24.2496C61.5702 23.0196 61.0961 21.7596 60.148 20.7696Z" stroke="#03303D" stroke-miterlimit="10"/>
<path d="M55.2886 22.8394C56.2368 21.8794 56.7108 20.6194 56.7108 19.3594C55.4664 19.3594 54.2219 19.8394 53.2738 20.7994C52.3256 21.7594 51.8516 23.0194 51.8516 24.2794C53.096 24.2794 54.3405 23.7994 55.2886 22.8394Z" stroke="#03303D" stroke-miterlimit="10"/>
<path d="M53.2738 17.919C54.2219 18.879 55.4664 19.359 56.7108 19.359C56.7108 18.099 56.2368 16.839 55.2886 15.879C54.3405 14.919 53.096 14.439 51.8516 14.439C51.8516 15.699 52.3256 16.959 53.2738 17.919Z" stroke="#03303D" stroke-miterlimit="10"/>
<path d="M47.8511 6.54883C46.5178 6.54883 45.303 7.11882 44.4141 7.98882C45.303 8.88882 46.5178 9.42882 47.8511 9.42882C49.1844 9.42882 50.3993 8.85882 51.2881 7.98882C50.3993 7.11882 49.1844 6.54883 47.8511 6.54883Z" stroke="#03303D" stroke-miterlimit="10"/>
<path d="M45.8288 11.499C45.8288 10.149 45.2658 8.91904 44.4066 8.01904C43.5177 8.91904 42.9844 10.149 42.9844 11.499C42.9844 12.849 43.5473 14.079 44.4066 14.979C45.2658 14.079 45.8288 12.849 45.8288 11.499Z" stroke="#03303D" stroke-miterlimit="10"/>
<path d="M40.9761 9.46009C42.3094 9.46009 43.5242 8.89009 44.4131 8.02009C43.5242 7.12009 42.3094 6.58008 40.9761 6.58008C39.6428 6.58008 38.428 7.15009 37.5391 8.02009C38.3983 8.92009 39.6131 9.46009 40.9761 9.46009Z" stroke="#03303D" stroke-miterlimit="10"/>
<path d="M42.9609 4.53907C42.9609 5.88907 43.5239 7.11908 44.3832 8.01908C45.2721 7.11908 45.8054 5.88907 45.8054 4.53907C45.8054 3.18907 45.2424 1.95908 44.3832 1.05908C43.5239 1.92908 42.9609 3.15907 42.9609 4.53907Z" stroke="#03303D" stroke-miterlimit="10"/>
<path d="M69.6641 8.79883V24.6388" stroke="#03303D" stroke-miterlimit="10"/>
<path d="M69.66 14.9494C73.0146 14.9494 75.7341 12.196 75.7341 8.79941C75.7341 5.40286 73.0146 2.64941 69.66 2.64941C66.3054 2.64941 63.5859 5.40286 63.5859 8.79941C63.5859 12.196 66.3054 14.9494 69.66 14.9494Z" stroke="#03303D" stroke-miterlimit="10"/>
<path d="M74.0469 13.2397V24.6397" stroke="#03303D" stroke-miterlimit="10"/>
<path d="M74.0492 17.6788C76.4711 17.6788 78.4344 15.691 78.4344 13.2388C78.4344 10.7867 76.4711 8.79883 74.0492 8.79883C71.6274 8.79883 69.6641 10.7867 69.6641 13.2388C69.6641 15.691 71.6274 17.6788 74.0492 17.6788Z" stroke="#03303D" stroke-miterlimit="10"/>
<path d="M11.5234 1.30029C11.5234 1.30029 11.5234 4.87029 11.5234 9.19029" stroke="#03303D" stroke-miterlimit="10"/>
<path d="M11.5234 16.9897C11.5234 21.1897 11.5234 24.6097 11.5234 24.6097" stroke="#03303D" stroke-miterlimit="10"/>
<path d="M5.75 2.86084C5.75 2.86084 7.49815 5.95084 9.66111 9.70084" stroke="#03303D" stroke-miterlimit="10"/>
<path d="M13.5391 16.54C15.5835 20.14 17.2428 23.05 17.2428 23.05" stroke="#03303D" stroke-miterlimit="10"/>
<path d="M1.53906 7.11963C1.53906 7.11963 4.4724 8.82963 8.08721 10.9296" stroke="#03303D" stroke-miterlimit="10"/>
<path d="M14.6328 14.8003C18.3661 16.9903 21.4773 18.7903 21.4773 18.7903" stroke="#03303D" stroke-miterlimit="10"/>
<path d="M0 12.9707C0 12.9707 3.43704 12.9707 7.67407 12.9707" stroke="#03303D" stroke-miterlimit="10"/>
<path d="M15.5 12.9702C19.6481 12.9702 23.0259 12.9702 23.0259 12.9702" stroke="#03303D" stroke-miterlimit="10"/>
<path d="M1.53906 18.7912C1.53906 18.7912 4.4724 17.0812 8.11684 14.9512" stroke="#03303D" stroke-miterlimit="10"/>
<path d="M14.875 10.9896C18.5194 8.85963 21.4824 7.11963 21.4824 7.11963" stroke="#03303D" stroke-miterlimit="10"/>
<path d="M5.80469 23.1396C5.80469 23.1396 7.55284 20.0796 9.68617 16.3296" stroke="#03303D" stroke-miterlimit="10"/>
<path d="M13.6016 9.49096C15.6756 5.89096 17.3349 2.98096 17.3349 2.98096" stroke="#03303D" stroke-miterlimit="10"/>
<path d="M11.5267 16.961C13.7031 16.961 15.4674 15.1746 15.4674 12.971C15.4674 10.7673 13.7031 8.98096 11.5267 8.98096C9.35027 8.98096 7.58594 10.7673 7.58594 12.971C7.58594 15.1746 9.35027 16.961 11.5267 16.961Z" stroke="#03303D" stroke-miterlimit="10"/>
</svg>
