<svg width="123" height="35" viewBox="0 0 123 35" fill="none" xmlns="http://www.w3.org/2000/svg">
<path d="M103.606 6.21519C102.616 2.46166 98.8584 0.311902 95.2037 1.1991C91.8906 2.01805 89.6021 5.6351 89.9778 9.0474C90.1145 10.1393 90.4219 11.2313 90.8317 12.255C92.0955 15.3602 93.9741 18.0559 96.2967 20.4786C96.3992 20.581 96.5358 20.7175 96.6724 20.8199C96.809 20.9222 96.9798 20.9222 97.0823 20.8199C97.2531 20.6492 97.4238 20.5127 97.5605 20.3421C99.0975 18.7383 100.43 16.9981 101.523 15.0872C102.479 13.4152 103.265 11.6749 103.606 9.76399C103.879 8.6038 103.948 7.4095 103.606 6.21519Z" stroke="#03303D" stroke-miterlimit="10"/>
<path d="M94.4844 7.78393C94.5185 6.48726 95.5774 5.42944 96.8753 5.42944C98.2074 5.42944 99.2662 6.52138 99.2662 7.81806C99.2662 9.14886 98.1732 10.2067 96.8753 10.2067C96.8411 10.2067 96.807 10.2067 96.7728 10.2067" stroke="#03303D" stroke-miterlimit="10"/>
<path d="M21.8189 13.4958H4.79261C2.69457 13.4958 1 15.1888 1 17.2848V20.4288V22.8876V32.9242C1 33.3676 1.56485 33.5288 1.80694 33.2064L6.80994 26.6765H21.7786C23.8766 26.6765 25.5712 24.9836 25.5712 22.8876V17.2445C25.6519 15.1888 23.917 13.4958 21.8189 13.4958Z" stroke="#03303D" stroke-miterlimit="10"/>
<path d="M7.85938 20.1465H9.47325" stroke="#03303D" stroke-miterlimit="10"/>
<path d="M12.5391 20.1465H14.1529" stroke="#03303D" stroke-miterlimit="10"/>
<path d="M17.1797 20.1465H18.8339" stroke="#03303D" stroke-miterlimit="10"/>
<path d="M120.986 31.3932H107.712C107.147 31.3932 106.703 30.9498 106.703 30.3855V21.7596C106.703 21.1953 107.147 20.752 107.712 20.752H120.986C121.551 20.752 121.995 21.1953 121.995 21.7596V30.3855C121.995 30.9498 121.51 31.3932 120.986 31.3932Z" stroke="#03303D" stroke-miterlimit="10"/>
<path d="M114.326 28.9346C115.908 28.9346 117.19 27.6534 117.19 26.0728C117.19 24.4922 115.908 23.2109 114.326 23.2109C112.743 23.2109 111.461 24.4922 111.461 26.0728C111.461 27.6534 112.743 28.9346 114.326 28.9346Z" stroke="#03303D" stroke-miterlimit="10"/>
<path d="M32.9922 13.8188C36.7444 10.0702 42.8771 10.0702 46.6294 13.8188" stroke="#03303D" stroke-miterlimit="10"/>
<path d="M49.1324 11.3193C43.968 6.15986 35.6566 6.15986 30.4922 11.3193" stroke="#03303D" stroke-miterlimit="10"/>
<path d="M35.6172 16.3984C37.9573 14.0606 41.7096 14.0606 44.0497 16.3984" stroke="#03303D" stroke-miterlimit="10"/>
<path d="M46.6294 13.8188C42.8771 10.0702 36.7444 10.0702 32.9922 13.8188" stroke="#03303D" stroke-miterlimit="10"/>
<path d="M78.5453 23.049C82.1774 23.049 85.1218 20.1075 85.1218 16.4789C85.1218 12.8503 82.1774 9.90869 78.5453 9.90869C74.9132 9.90869 71.9688 12.8503 71.9688 16.4789C71.9688 20.1075 74.9132 23.049 78.5453 23.049Z" stroke="#03303D" stroke-miterlimit="10"/>
<path d="M78.5469 9.86719V33.407" stroke="#03303D" stroke-miterlimit="10"/>
<path d="M72.9766 12.9297L78.5848 18.5325L84.1123 13.0506" stroke="#03303D" stroke-miterlimit="10"/>
<path d="M63.2484 23.0488C66.8805 23.0488 69.8249 20.1072 69.8249 16.4786C69.8249 12.85 66.8805 9.90845 63.2484 9.90845C59.6163 9.90845 56.6719 12.85 56.6719 16.4786C56.6719 20.1072 59.6163 23.0488 63.2484 23.0488Z" stroke="#03303D" stroke-miterlimit="10"/>
<path d="M63.25 9.86694V33.4067" stroke="#03303D" stroke-miterlimit="10"/>
<path d="M57.6797 12.9297L63.2879 18.5325L68.8154 13.0506" stroke="#03303D" stroke-miterlimit="10"/>
<path d="M28.8438 30.3838L31.7891 33.3263L34.8554 30.3838" stroke="#03303D" stroke-miterlimit="10"/>
<path d="M31.8281 28.4084V33.326" stroke="#03303D" stroke-miterlimit="10"/>
<path d="M38.1172 30.3838L41.0625 33.3263L44.1289 30.3838" stroke="#03303D" stroke-miterlimit="10"/>
<path d="M41.1016 28.4084V33.326" stroke="#03303D" stroke-miterlimit="10"/>
<path d="M47.3594 30.3838L50.345 33.3263L53.4114 30.3838" stroke="#03303D" stroke-miterlimit="10"/>
<path d="M50.3906 28.4084V33.326" stroke="#03303D" stroke-miterlimit="10"/>
</svg>
