<svg width="676" height="126" viewBox="0 0 676 126" fill="none" xmlns="http://www.w3.org/2000/svg">
<path d="M461.475 64.575C465.666 64.575 469.064 61.1774 469.064 56.9863C469.064 52.7953 465.666 49.3977 461.475 49.3977C457.284 49.3977 453.886 52.7953 453.886 56.9863C453.886 61.1774 457.284 64.575 461.475 64.575Z" stroke="#03303D" stroke-width="3.59315" stroke-miterlimit="10"/>
<path d="M424.532 89.775C419.091 89.775 414.652 85.3364 414.652 79.8955V60.4228C414.652 54.9819 419.091 50.5432 424.532 50.5432C429.973 50.5432 434.411 54.9819 434.411 60.4228V80.0387C434.411 85.3364 429.973 89.775 424.532 89.775Z" stroke="#03303D" stroke-width="3.59315" stroke-miterlimit="10"/>
<path d="M613.389 29.4952H636.011L628.709 36.7975L624.7 46.8202L620.118 36.7975L613.389 29.4952Z" stroke="#03303D" stroke-width="3.59315" stroke-miterlimit="10" stroke-linejoin="round"/>
<path d="M635.865 29.209L646.031 45.9613C643.168 49.3976 638.156 49.9703 634.577 47.2499L627.131 41.809" stroke="#03303D" stroke-width="3.59315" stroke-miterlimit="10"/>
<path d="M613.532 29.209L603.366 45.9613C606.23 49.3976 611.098 49.8272 614.821 47.2499L622.266 41.809" stroke="#03303D" stroke-width="3.59315" stroke-miterlimit="10"/>
<path d="M640.59 49.8271V50.1135C641.02 52.2612 641.163 54.5521 641.163 56.843C641.163 67.1521 639.302 76.8885 635.722 86.768L633.861 91.9226L624.554 85.3362L616.25 91.9226L614.388 88.1998C608.804 77.0317 606.513 66.1499 608.231 53.693L609.09 49.3976" stroke="#03303D" stroke-width="3.59315" stroke-miterlimit="10"/>
<path d="M645.89 45.8182L650.472 56.2705C654.911 66.1501 653.049 77.7478 645.89 85.9091" stroke="#03303D" stroke-width="3.59315" stroke-miterlimit="10"/>
<path d="M603.65 45.818L599.068 56.2703C594.629 66.1498 596.491 77.7475 603.65 85.9089" stroke="#03303D" stroke-width="3.59315" stroke-miterlimit="10"/>
<path d="M619.401 88.6294L624.699 96.3612L629.424 88.6294" stroke="#03303D" stroke-width="3.59315" stroke-miterlimit="10"/>
<path d="M104.09 44.3863C101.084 32.7886 89.4859 26.059 78.0313 28.9227C67.7223 31.4999 60.7063 42.6681 61.8518 53.2636C62.2813 56.6999 63.1404 59.9931 64.5723 63.2863C68.4382 72.8795 74.3086 81.3272 81.4677 88.7727C81.7541 89.2022 82.1836 89.4886 82.6132 89.7749C83.0427 90.0613 83.6154 90.0613 83.9018 89.7749C84.4745 89.3454 84.9041 88.7727 85.4768 88.3431C90.2018 83.4749 94.3541 78.034 97.7904 72.0204C100.797 66.8658 103.231 61.4249 104.234 55.5545C104.806 51.8317 104.95 48.109 104.09 44.3863Z" stroke="#03303D" stroke-width="3.59315" stroke-miterlimit="10"/>
<path d="M75.7407 49.2547C75.8839 45.2456 79.1771 41.9524 83.1862 41.9524C87.3384 41.9524 90.6316 45.2456 90.6316 49.3978C90.6316 53.5501 87.3384 56.8433 83.1862 56.8433C83.043 56.8433 83.043 56.8433 82.8998 56.8433" stroke="#03303D" stroke-width="3.59315" stroke-miterlimit="10"/>
<path d="M154.923 59.134V86.0522" stroke="#03303D" stroke-width="3.59315" stroke-miterlimit="10"/>
<path d="M150.627 45.5317L155.352 67.1522L159.362 45.5317" stroke="#03303D" stroke-width="3.59315" stroke-miterlimit="10"/>
<path d="M149.479 32.5022V44.1C149.479 44.9591 150.195 45.675 151.054 45.675H159.645C160.504 45.675 161.22 44.9591 161.22 44.1V32.5022C161.22 31.6432 160.504 30.9272 159.645 30.9272H151.054C150.195 30.9272 149.479 31.6432 149.479 32.5022Z" stroke="#03303D" stroke-width="3.59315" stroke-miterlimit="10"/>
<path d="M149.48 32.2159L118.982 20.9045V24.1977L132.298 42.6682" stroke="#03303D" stroke-width="3.59315" stroke-miterlimit="10"/>
<path d="M127.002 56.6999L149.339 42.6681" stroke="#03303D" stroke-width="3.59315" stroke-miterlimit="10"/>
<path d="M161.791 32.2159L192.289 20.9045V24.1977L179.116 42.6682" stroke="#03303D" stroke-width="3.59315" stroke-miterlimit="10"/>
<path d="M184.273 56.6999L161.937 42.6681" stroke="#03303D" stroke-width="3.59315" stroke-miterlimit="10"/>
<path d="M157.644 30.4976V26.2021H152.775V30.4976" stroke="#03303D" stroke-width="3.59315" stroke-miterlimit="10"/>
<path d="M22.7637 74.7408L32.5 84.6204L42.6659 74.7408" stroke="#03303D" stroke-width="3.59315" stroke-miterlimit="10"/>
<path d="M32.7866 68.1545V84.6204" stroke="#03303D" stroke-width="3.59315" stroke-miterlimit="10"/>
<path d="M22.7637 47.5363L32.5 57.4158L42.6659 47.5363" stroke="#03303D" stroke-width="3.59315" stroke-miterlimit="10"/>
<path d="M32.7866 41.0931V57.4159" stroke="#03303D" stroke-width="3.59315" stroke-miterlimit="10"/>
<path d="M544.804 64.4318C544.661 64.4318 544.661 64.4318 544.518 64.4318C529.054 64.4318 516.455 77.0318 516.455 92.4954C516.455 77.0318 503.855 64.4318 488.391 64.4318C488.248 64.4318 488.248 64.4318 488.104 64.4318" stroke="#03303D" stroke-width="3.96728" stroke-miterlimit="10"/>
<path d="M589.191 34.2205H589.047C579.741 34.2205 572.152 41.8091 572.152 51.1159C572.152 41.8091 564.563 34.2205 555.256 34.2205H555.113" stroke="#03303D" stroke-width="3.96728" stroke-miterlimit="10"/>
<path d="M221.787 59.4205C221.787 59.4205 227.943 60.2796 230.234 65.1478" stroke="#03303D" stroke-width="3.59315" stroke-miterlimit="10"/>
<path d="M243.837 59.4205C243.837 59.4205 237.68 60.2796 235.389 65.1478" stroke="#03303D" stroke-width="3.59315" stroke-miterlimit="10"/>
<path d="M233.103 68.8706C235.537 68.8706 237.828 69.7297 239.546 71.1615C239.546 71.0184 239.546 70.8752 239.546 70.732C239.546 67.0093 236.539 64.1456 232.959 64.1456C229.38 64.1456 226.373 67.1525 226.373 70.732C226.373 71.0184 226.373 71.1615 226.373 71.4479C228.091 69.8729 230.525 68.8706 233.103 68.8706Z" stroke="#03303D" stroke-width="3.59315" stroke-miterlimit="10"/>
<path d="M241.262 85.1932C242.407 83.3318 243.123 81.3273 243.123 79.0364C243.123 73.4523 238.542 68.8705 232.957 68.8705C227.373 68.8705 222.792 73.4523 222.792 79.0364C222.792 81.1841 223.507 83.3318 224.653 85.1932C222.792 87.7705 221.503 91.2069 221.503 95.0728C221.503 102.948 226.514 107.959 232.814 107.959C239.114 107.959 244.126 102.948 244.126 95.0728C244.412 91.2069 243.267 87.7705 241.262 85.1932Z" stroke="#03303D" stroke-width="3.59315" stroke-miterlimit="10"/>
<path d="M223.078 79.0363C223.078 77.6045 223.364 76.1727 223.937 74.8841L201.028 67.8682C200.455 67.725 199.882 67.5818 199.309 67.5818H199.166C196.303 67.5818 194.012 69.8727 194.012 72.7363C194.012 74.8841 195.3 76.6022 197.019 77.4613C198.021 77.8909 198.594 78.8932 198.594 80.0386C198.594 83.6182 201.314 86.625 204.75 87.1977C206.612 87.4841 208.473 87.3409 210.191 86.7681C212.053 86.1954 213.914 85.6227 215.775 85.05C217.78 84.4772 219.784 83.7613 221.789 83.1886C221.932 83.1886 222.791 82.9022 223.507 82.7591C223.221 81.6136 223.078 80.325 223.078 79.0363Z" stroke="#03303D" stroke-width="3.59315" stroke-miterlimit="10"/>
<path d="M266.748 67.7249C266.032 67.7249 265.46 67.7249 264.887 68.0112L242.264 75.0271C242.837 76.3158 243.123 77.7476 243.123 79.1794C243.123 80.468 242.837 81.7567 242.407 82.9021C243.123 83.0453 243.839 83.3317 243.839 83.3317C245.844 83.9044 247.848 84.6203 249.853 85.193C251.714 85.7658 253.576 86.3385 255.437 86.9112C257.155 87.4839 259.016 87.6271 260.878 87.3408C264.457 86.768 267.035 83.7612 267.035 80.1817C267.035 79.0362 267.607 78.1771 268.61 77.6044C270.328 76.7453 271.616 75.0271 271.616 72.8794C272.046 70.0158 269.612 67.7249 266.748 67.7249Z" stroke="#03303D" stroke-width="3.59315" stroke-miterlimit="10"/>
<path d="M223.077 75.8865H243.266" stroke="#03303D" stroke-width="3.59315" stroke-miterlimit="10"/>
<path d="M223.077 84.3342H243.266" stroke="#03303D" stroke-width="3.59315" stroke-miterlimit="10"/>
<path d="M223.077 92.782H243.266" stroke="#03303D" stroke-width="3.59315" stroke-miterlimit="10"/>
<path d="M342.916 7.15906C342.916 7.15906 342.916 24.1977 342.916 44.8159" stroke="#03303D" stroke-width="3.44982" stroke-miterlimit="10"/>
<path d="M342.916 82.0432C342.916 102.089 342.916 118.411 342.916 118.411" stroke="#03303D" stroke-width="3.44982" stroke-miterlimit="10"/>
<path d="M315.141 14.6045C315.141 14.6045 323.589 29.3522 334.041 47.2499" stroke="#03303D" stroke-width="3.44982" stroke-miterlimit="10"/>
<path d="M352.798 79.8955C362.677 97.0773 370.696 110.966 370.696 110.966" stroke="#03303D" stroke-width="3.44982" stroke-miterlimit="10"/>
<path d="M294.667 34.9364C294.667 34.9364 308.841 43.0978 326.31 53.1205" stroke="#03303D" stroke-width="3.44982" stroke-miterlimit="10"/>
<path d="M358.096 71.5909C376.137 82.0432 391.171 90.6341 391.171 90.6341" stroke="#03303D" stroke-width="3.44982" stroke-miterlimit="10"/>
<path d="M287.221 62.8568C287.221 62.8568 303.83 62.8568 324.305 62.8568" stroke="#03303D" stroke-width="3.44982" stroke-miterlimit="10"/>
<path d="M362.104 62.8568C382.15 62.8568 398.473 62.8568 398.473 62.8568" stroke="#03303D" stroke-width="3.44982" stroke-miterlimit="10"/>
<path d="M294.667 90.634C294.667 90.634 308.841 82.4727 326.453 72.3068" stroke="#03303D" stroke-width="3.44982" stroke-miterlimit="10"/>
<path d="M359.241 53.4069C376.852 43.2409 391.17 34.9364 391.17 34.9364" stroke="#03303D" stroke-width="3.44982" stroke-miterlimit="10"/>
<path d="M315.428 111.395C315.428 111.395 323.875 96.7909 334.185 78.8932" stroke="#03303D" stroke-width="3.44982" stroke-miterlimit="10"/>
<path d="M353.084 46.2477C363.107 29.0659 371.125 15.1772 371.125 15.1772" stroke="#03303D" stroke-width="3.44982" stroke-miterlimit="10"/>
<path d="M342.921 81.9001C353.438 81.9001 361.964 73.3742 361.964 62.8569C361.964 52.3396 353.438 43.8137 342.921 43.8137C332.403 43.8137 323.877 52.3396 323.877 62.8569C323.877 73.3742 332.403 81.9001 342.921 81.9001Z" stroke="#03303D" stroke-width="3.44982" stroke-miterlimit="10"/>
</svg>
