<svg width="17" height="19" viewBox="0 0 17 19" fill="none" xmlns="http://www.w3.org/2000/svg">
<path d="M8.88952 18.5603C8.82088 18.5603 8.75274 18.5592 8.6841 18.5576V18.5598C3.89587 18.521 0 14.3594 0 9.2826C0 5.14689 2.3003 1.8062 5.68923 0.546032C8.28902 -0.492611 11.6256 -0.0387773 14.022 1.8159C14.3774 2.09133 14.7125 2.39802 15.0176 2.72788L13.6584 4.13951C13.4266 3.88834 13.1713 3.65442 12.8998 3.44475C11.8173 2.60661 10.2868 2.05414 8.75224 2.01533V2.02126C7.89801 2.02126 7.09413 2.16302 6.35888 2.42659C6.01211 2.5678 5.67906 2.74675 5.36687 2.96828C4.47705 3.59836 3.92943 4.92537 4.55332 6.0551C4.8223 6.54235 5.30076 6.97193 5.97601 7.33252C7.6992 8.25312 9.63493 8.22132 11.6861 8.1879L12.4966 8.17658C12.5022 8.17658 16.9538 8.17119 16.9538 8.17119L16.9741 9.20822C16.9797 9.37261 16.9955 9.80597 16.996 10.3153C17.0606 12.4352 16.3406 14.4311 14.9687 15.9365C13.4484 17.6041 11.2325 18.5603 8.88952 18.5603ZM8.69529 16.5402C10.5858 16.5924 12.3954 15.8567 13.5994 14.5351C14.6286 13.4059 15.1452 11.9641 15.0933 10.3665L15.0928 10.3315C15.0928 10.283 15.0928 10.235 15.0923 10.1881C13.9132 10.1897 12.5057 10.1924 12.5057 10.1924L11.7156 10.2032C9.52612 10.2388 7.26141 10.2765 5.11975 9.13276C4.11146 8.59431 3.36808 7.90116 2.91097 7.07272C2.73911 6.76118 2.61098 6.43401 2.52454 6.09876C2.12285 7.04523 1.90319 8.11891 1.90319 9.28098C1.90319 13.2528 4.94941 16.5089 8.69529 16.5418V16.5402Z" fill="#44D09F"/>
</svg>
